<mxfile host="Electron" modified="2023-05-29T23:39:52.603Z" agent="Mozilla/5.0 (Windows NT 10.0; Win64; x64) AppleWebKit/537.36 (KHTML, like Gecko) draw.io/21.2.8 Chrome/112.0.5615.165 Electron/24.2.0 Safari/537.36" etag="iLqjAAmQy-YfWvCWJMQU" version="21.2.8" type="device" pages="4">
  <diagram name="Deployment" id="5f0bae14-7c28-e335-631c-24af17079c00">
    <mxGraphModel dx="1434" dy="836" grid="1" gridSize="10" guides="1" tooltips="1" connect="1" arrows="1" fold="1" page="1" pageScale="1" pageWidth="1100" pageHeight="850" background="none" math="0" shadow="0">
      <root>
        <mxCell id="0" />
        <mxCell id="1" parent="0" />
        <mxCell id="xgVRPZhyud_OhfNZJQ7n-8" value="" style="edgeStyle=orthogonalEdgeStyle;rounded=0;orthogonalLoop=1;jettySize=auto;html=1;endArrow=none;endFill=0;" parent="1" source="xgVRPZhyud_OhfNZJQ7n-1" target="39150e848f15840c-1" edge="1">
          <mxGeometry relative="1" as="geometry" />
        </mxCell>
        <mxCell id="39150e848f15840c-1" value="&amp;lt;&amp;lt;device&amp;gt;&amp;gt;&lt;br&gt;&lt;br&gt;Server" style="verticalAlign=top;align=center;spacingTop=8;spacingLeft=2;spacingRight=12;shape=cube;size=10;direction=south;fontStyle=4;html=1;rounded=0;shadow=0;comic=0;labelBackgroundColor=none;strokeWidth=1;fontFamily=Verdana;fontSize=12" parent="1" vertex="1">
          <mxGeometry x="370" y="40" width="170" height="310" as="geometry" />
        </mxCell>
        <mxCell id="39150e848f15840c-2" value="&amp;lt;&amp;lt;device&amp;gt;&amp;gt;&lt;br&gt;&lt;br&gt;Web Server" style="verticalAlign=top;align=center;spacingTop=8;spacingLeft=2;spacingRight=12;shape=cube;size=10;direction=south;fontStyle=4;html=1;rounded=0;shadow=0;comic=0;labelBackgroundColor=none;strokeWidth=1;fontFamily=Verdana;fontSize=12" parent="1" vertex="1">
          <mxGeometry x="630" y="180" width="170" height="178.5" as="geometry" />
        </mxCell>
        <mxCell id="pYCAXgkdvfcRuwA08aoW-29" value="" style="edgeStyle=orthogonalEdgeStyle;rounded=0;orthogonalLoop=1;jettySize=auto;html=1;endArrow=none;endFill=0;" parent="1" source="39150e848f15840c-3" target="39150e848f15840c-2" edge="1">
          <mxGeometry relative="1" as="geometry" />
        </mxCell>
        <mxCell id="pYCAXgkdvfcRuwA08aoW-31" value="HTTPS:443" style="edgeLabel;html=1;align=center;verticalAlign=middle;resizable=0;points=[];labelBackgroundColor=default;" parent="pYCAXgkdvfcRuwA08aoW-29" vertex="1" connectable="0">
          <mxGeometry x="-0.1865" relative="1" as="geometry">
            <mxPoint y="-3" as="offset" />
          </mxGeometry>
        </mxCell>
        <mxCell id="39150e848f15840c-3" value="&amp;lt;&amp;lt;device&amp;gt;&amp;gt;&lt;br&gt;&lt;br&gt;Web Client" style="verticalAlign=top;align=center;spacingTop=8;spacingLeft=2;spacingRight=12;shape=cube;size=10;direction=south;fontStyle=4;html=1;rounded=0;shadow=0;comic=0;labelBackgroundColor=none;strokeWidth=1;fontFamily=Verdana;fontSize=12" parent="1" vertex="1">
          <mxGeometry x="630" y="398.5" width="170" height="170" as="geometry" />
        </mxCell>
        <mxCell id="pYCAXgkdvfcRuwA08aoW-2" value="&amp;lt;&amp;lt;environment&amp;gt;&amp;gt;&lt;br&gt;&lt;br&gt;Browser" style="verticalAlign=top;align=center;spacingTop=8;spacingLeft=2;spacingRight=12;shape=cube;size=10;direction=south;fontStyle=4;html=1;rounded=0;shadow=0;comic=0;labelBackgroundColor=none;strokeWidth=1;fontFamily=Verdana;fontSize=12" parent="1" vertex="1">
          <mxGeometry x="640" y="458.5" width="140" height="100" as="geometry" />
        </mxCell>
        <mxCell id="pYCAXgkdvfcRuwA08aoW-6" value="&amp;lt;&amp;lt;artifact&amp;gt;&amp;gt;&lt;br&gt;HTML5" style="html=1;align=center;verticalAlign=middle;dashed=0;whiteSpace=wrap;" parent="1" vertex="1">
          <mxGeometry x="650" y="518.5" width="110" height="30" as="geometry" />
        </mxCell>
        <mxCell id="pYCAXgkdvfcRuwA08aoW-7" value="&amp;lt;&amp;lt;environment&amp;gt;&amp;gt;&lt;br&gt;&lt;br&gt;Node.js" style="verticalAlign=top;align=center;spacingTop=8;spacingLeft=2;spacingRight=12;shape=cube;size=10;direction=south;fontStyle=4;html=1;rounded=0;shadow=0;comic=0;labelBackgroundColor=none;strokeWidth=1;fontFamily=Verdana;fontSize=12" parent="1" vertex="1">
          <mxGeometry x="640" y="245" width="140" height="105" as="geometry" />
        </mxCell>
        <mxCell id="pYCAXgkdvfcRuwA08aoW-1" value="" style="edgeStyle=orthogonalEdgeStyle;rounded=0;orthogonalLoop=1;jettySize=auto;html=1;endArrow=none;endFill=0;" parent="1" source="39150e848f15840c-1" target="39150e848f15840c-2" edge="1">
          <mxGeometry relative="1" as="geometry" />
        </mxCell>
        <mxCell id="pYCAXgkdvfcRuwA08aoW-44" value="HTTPS:23450" style="edgeLabel;html=1;align=center;verticalAlign=middle;resizable=0;points=[];" parent="pYCAXgkdvfcRuwA08aoW-1" vertex="1" connectable="0">
          <mxGeometry x="-0.0921" relative="1" as="geometry">
            <mxPoint x="2" y="-29" as="offset" />
          </mxGeometry>
        </mxCell>
        <mxCell id="pYCAXgkdvfcRuwA08aoW-22" value="" style="edgeStyle=orthogonalEdgeStyle;rounded=0;orthogonalLoop=1;jettySize=auto;html=1;endArrow=none;endFill=0;" parent="1" source="pYCAXgkdvfcRuwA08aoW-18" target="39150e848f15840c-1" edge="1">
          <mxGeometry relative="1" as="geometry" />
        </mxCell>
        <mxCell id="pYCAXgkdvfcRuwA08aoW-45" value="TCP:1433" style="edgeLabel;html=1;align=center;verticalAlign=middle;resizable=0;points=[];" parent="pYCAXgkdvfcRuwA08aoW-22" vertex="1" connectable="0">
          <mxGeometry x="-0.1033" relative="1" as="geometry">
            <mxPoint as="offset" />
          </mxGeometry>
        </mxCell>
        <mxCell id="pYCAXgkdvfcRuwA08aoW-18" value="&amp;lt;&amp;lt;device&amp;gt;&amp;gt;&lt;br&gt;&lt;br&gt;DB Server" style="verticalAlign=top;align=center;spacingTop=8;spacingLeft=2;spacingRight=12;shape=cube;size=10;direction=south;fontStyle=4;html=1;rounded=0;shadow=0;comic=0;labelBackgroundColor=none;strokeWidth=1;fontFamily=Verdana;fontSize=12" parent="1" vertex="1">
          <mxGeometry x="390" y="410" width="130" height="130" as="geometry" />
        </mxCell>
        <mxCell id="pYCAXgkdvfcRuwA08aoW-20" value="MS SQL Server 2022" style="shape=module;align=left;spacingLeft=20;align=center;verticalAlign=top;whiteSpace=wrap;html=1;" parent="1" vertex="1">
          <mxGeometry x="400" y="480" width="100" height="50" as="geometry" />
        </mxCell>
        <mxCell id="pYCAXgkdvfcRuwA08aoW-25" value="" style="edgeStyle=orthogonalEdgeStyle;rounded=0;orthogonalLoop=1;jettySize=auto;html=1;endArrow=none;endFill=0;" parent="1" source="pYCAXgkdvfcRuwA08aoW-23" target="39150e848f15840c-1" edge="1">
          <mxGeometry relative="1" as="geometry" />
        </mxCell>
        <mxCell id="pYCAXgkdvfcRuwA08aoW-32" value="TCP:1883" style="edgeLabel;html=1;align=center;verticalAlign=middle;resizable=0;points=[];" parent="pYCAXgkdvfcRuwA08aoW-25" vertex="1" connectable="0">
          <mxGeometry x="-0.2679" y="-1" relative="1" as="geometry">
            <mxPoint x="8" y="-1" as="offset" />
          </mxGeometry>
        </mxCell>
        <mxCell id="pYCAXgkdvfcRuwA08aoW-23" value="&amp;lt;&amp;lt;device&amp;gt;&amp;gt;&lt;br&gt;&lt;br&gt;MQTT Broker" style="verticalAlign=top;align=center;spacingTop=8;spacingLeft=2;spacingRight=12;shape=cube;size=10;direction=south;fontStyle=4;html=1;rounded=0;shadow=0;comic=0;labelBackgroundColor=none;strokeWidth=1;fontFamily=Verdana;fontSize=12" parent="1" vertex="1">
          <mxGeometry x="170" y="130" width="130" height="130" as="geometry" />
        </mxCell>
        <mxCell id="pYCAXgkdvfcRuwA08aoW-26" value="" style="edgeStyle=orthogonalEdgeStyle;rounded=0;orthogonalLoop=1;jettySize=auto;html=1;endArrow=none;endFill=0;" parent="1" source="pYCAXgkdvfcRuwA08aoW-24" target="pYCAXgkdvfcRuwA08aoW-23" edge="1">
          <mxGeometry relative="1" as="geometry" />
        </mxCell>
        <mxCell id="pYCAXgkdvfcRuwA08aoW-33" value="TCP:1883" style="edgeLabel;html=1;align=center;verticalAlign=middle;resizable=0;points=[];" parent="pYCAXgkdvfcRuwA08aoW-26" vertex="1" connectable="0">
          <mxGeometry x="-0.29" y="1" relative="1" as="geometry">
            <mxPoint as="offset" />
          </mxGeometry>
        </mxCell>
        <mxCell id="pYCAXgkdvfcRuwA08aoW-24" value="&amp;lt;&amp;lt;device&amp;gt;&amp;gt;&lt;br&gt;&lt;br&gt;Terminal" style="verticalAlign=top;align=center;spacingTop=8;spacingLeft=2;spacingRight=12;shape=cube;size=10;direction=south;fontStyle=4;html=1;rounded=0;shadow=0;comic=0;labelBackgroundColor=none;strokeWidth=1;fontFamily=Verdana;fontSize=12" parent="1" vertex="1">
          <mxGeometry x="170" y="310" width="130" height="120" as="geometry" />
        </mxCell>
        <mxCell id="pYCAXgkdvfcRuwA08aoW-30" value="&amp;lt;&amp;lt;artifact&amp;gt;&amp;gt;&lt;br&gt;index.html" style="html=1;align=center;verticalAlign=middle;dashed=0;whiteSpace=wrap;" parent="1" vertex="1">
          <mxGeometry x="650.1" y="310" width="109.79" height="30" as="geometry" />
        </mxCell>
        <mxCell id="pYCAXgkdvfcRuwA08aoW-34" value="ESP32" style="shape=module;align=left;spacingLeft=20;align=center;verticalAlign=top;whiteSpace=wrap;html=1;" parent="1" vertex="1">
          <mxGeometry x="180" y="375" width="100" height="45" as="geometry" />
        </mxCell>
        <mxCell id="pYCAXgkdvfcRuwA08aoW-35" value="&amp;lt;&amp;lt;environment&amp;gt;&amp;gt;&lt;br&gt;&lt;br&gt;IIS" style="verticalAlign=top;align=center;spacingTop=8;spacingLeft=2;spacingRight=12;shape=cube;size=10;direction=south;fontStyle=4;html=1;rounded=0;shadow=0;comic=0;labelBackgroundColor=none;strokeWidth=1;fontFamily=Verdana;fontSize=12" parent="1" vertex="1">
          <mxGeometry x="380" y="80" width="140" height="260" as="geometry" />
        </mxCell>
        <mxCell id="pYCAXgkdvfcRuwA08aoW-14" value="" style="edgeStyle=orthogonalEdgeStyle;rounded=0;orthogonalLoop=1;jettySize=auto;html=1;dashed=1;" parent="1" source="pYCAXgkdvfcRuwA08aoW-9" target="pYCAXgkdvfcRuwA08aoW-10" edge="1">
          <mxGeometry relative="1" as="geometry" />
        </mxCell>
        <mxCell id="pYCAXgkdvfcRuwA08aoW-9" value="API" style="shape=module;align=left;spacingLeft=20;align=center;verticalAlign=top;whiteSpace=wrap;html=1;" parent="1" vertex="1">
          <mxGeometry x="395" y="140" width="100" height="50" as="geometry" />
        </mxCell>
        <mxCell id="pYCAXgkdvfcRuwA08aoW-15" value="" style="edgeStyle=orthogonalEdgeStyle;rounded=0;orthogonalLoop=1;jettySize=auto;html=1;dashed=1;" parent="1" source="pYCAXgkdvfcRuwA08aoW-10" target="pYCAXgkdvfcRuwA08aoW-11" edge="1">
          <mxGeometry relative="1" as="geometry" />
        </mxCell>
        <mxCell id="pYCAXgkdvfcRuwA08aoW-10" value="Services" style="shape=module;align=left;spacingLeft=20;align=center;verticalAlign=top;whiteSpace=wrap;html=1;" parent="1" vertex="1">
          <mxGeometry x="395" y="212.5" width="100" height="50" as="geometry" />
        </mxCell>
        <mxCell id="pYCAXgkdvfcRuwA08aoW-11" value="DataAccess" style="shape=module;align=left;spacingLeft=20;align=center;verticalAlign=top;whiteSpace=wrap;html=1;" parent="1" vertex="1">
          <mxGeometry x="395" y="278.5" width="100" height="50" as="geometry" />
        </mxCell>
        <mxCell id="xgVRPZhyud_OhfNZJQ7n-1" value="&amp;lt;&amp;lt;device&amp;gt;&amp;gt;&lt;br&gt;&lt;br&gt;Mobile Client" style="verticalAlign=top;align=center;spacingTop=8;spacingLeft=2;spacingRight=12;shape=cube;size=10;direction=south;fontStyle=4;html=1;rounded=0;shadow=0;comic=0;labelBackgroundColor=none;strokeWidth=1;fontFamily=Verdana;fontSize=12" parent="1" vertex="1">
          <mxGeometry x="630.21" y="38.5" width="130" height="130" as="geometry" />
        </mxCell>
        <mxCell id="xgVRPZhyud_OhfNZJQ7n-4" value="Mobile App" style="shape=module;align=left;spacingLeft=20;align=center;verticalAlign=top;whiteSpace=wrap;html=1;" parent="1" vertex="1">
          <mxGeometry x="640" y="108.5" width="100" height="50" as="geometry" />
        </mxCell>
      </root>
    </mxGraphModel>
  </diagram>
  <diagram id="fTxw1FVU1ITI6C_wcade" name="ER">
    <mxGraphModel dx="1418" dy="820" grid="1" gridSize="10" guides="1" tooltips="1" connect="1" arrows="1" fold="1" page="1" pageScale="1" pageWidth="850" pageHeight="1100" math="0" shadow="0">
      <root>
        <mxCell id="0" />
        <mxCell id="1" parent="0" />
        <mxCell id="Md4FhOEQ7cLL4MYVZYy_-1" value="User" style="shape=table;startSize=30;container=1;collapsible=1;childLayout=tableLayout;fixedRows=1;rowLines=0;fontStyle=1;align=center;resizeLast=1;" vertex="1" parent="1">
          <mxGeometry x="315" y="280" width="130" height="180" as="geometry" />
        </mxCell>
        <mxCell id="Md4FhOEQ7cLL4MYVZYy_-2" value="" style="shape=partialRectangle;collapsible=0;dropTarget=0;pointerEvents=0;fillColor=none;points=[[0,0.5],[1,0.5]];portConstraint=eastwest;top=0;left=0;right=0;bottom=1;" vertex="1" parent="Md4FhOEQ7cLL4MYVZYy_-1">
          <mxGeometry y="30" width="130" height="30" as="geometry" />
        </mxCell>
        <mxCell id="Md4FhOEQ7cLL4MYVZYy_-3" value="PK" style="shape=partialRectangle;overflow=hidden;connectable=0;fillColor=none;top=0;left=0;bottom=0;right=0;fontStyle=1;" vertex="1" parent="Md4FhOEQ7cLL4MYVZYy_-2">
          <mxGeometry width="30" height="30" as="geometry">
            <mxRectangle width="30" height="30" as="alternateBounds" />
          </mxGeometry>
        </mxCell>
        <mxCell id="Md4FhOEQ7cLL4MYVZYy_-4" value="id" style="shape=partialRectangle;overflow=hidden;connectable=0;fillColor=none;top=0;left=0;bottom=0;right=0;align=left;spacingLeft=6;fontStyle=5;" vertex="1" parent="Md4FhOEQ7cLL4MYVZYy_-2">
          <mxGeometry x="30" width="100" height="30" as="geometry">
            <mxRectangle width="100" height="30" as="alternateBounds" />
          </mxGeometry>
        </mxCell>
        <mxCell id="Md4FhOEQ7cLL4MYVZYy_-5" value="" style="shape=partialRectangle;collapsible=0;dropTarget=0;pointerEvents=0;fillColor=none;points=[[0,0.5],[1,0.5]];portConstraint=eastwest;top=0;left=0;right=0;bottom=0;" vertex="1" parent="Md4FhOEQ7cLL4MYVZYy_-1">
          <mxGeometry y="60" width="130" height="30" as="geometry" />
        </mxCell>
        <mxCell id="Md4FhOEQ7cLL4MYVZYy_-6" value="" style="shape=partialRectangle;overflow=hidden;connectable=0;fillColor=none;top=0;left=0;bottom=0;right=0;" vertex="1" parent="Md4FhOEQ7cLL4MYVZYy_-5">
          <mxGeometry width="30" height="30" as="geometry">
            <mxRectangle width="30" height="30" as="alternateBounds" />
          </mxGeometry>
        </mxCell>
        <mxCell id="Md4FhOEQ7cLL4MYVZYy_-7" value="name" style="shape=partialRectangle;overflow=hidden;connectable=0;fillColor=none;top=0;left=0;bottom=0;right=0;align=left;spacingLeft=6;" vertex="1" parent="Md4FhOEQ7cLL4MYVZYy_-5">
          <mxGeometry x="30" width="100" height="30" as="geometry">
            <mxRectangle width="100" height="30" as="alternateBounds" />
          </mxGeometry>
        </mxCell>
        <mxCell id="Md4FhOEQ7cLL4MYVZYy_-8" value="" style="shape=partialRectangle;collapsible=0;dropTarget=0;pointerEvents=0;fillColor=none;points=[[0,0.5],[1,0.5]];portConstraint=eastwest;top=0;left=0;right=0;bottom=0;" vertex="1" parent="Md4FhOEQ7cLL4MYVZYy_-1">
          <mxGeometry y="90" width="130" height="30" as="geometry" />
        </mxCell>
        <mxCell id="Md4FhOEQ7cLL4MYVZYy_-9" value="" style="shape=partialRectangle;overflow=hidden;connectable=0;fillColor=none;top=0;left=0;bottom=0;right=0;" vertex="1" parent="Md4FhOEQ7cLL4MYVZYy_-8">
          <mxGeometry width="30" height="30" as="geometry">
            <mxRectangle width="30" height="30" as="alternateBounds" />
          </mxGeometry>
        </mxCell>
        <mxCell id="Md4FhOEQ7cLL4MYVZYy_-10" value="email" style="shape=partialRectangle;overflow=hidden;connectable=0;fillColor=none;top=0;left=0;bottom=0;right=0;align=left;spacingLeft=6;" vertex="1" parent="Md4FhOEQ7cLL4MYVZYy_-8">
          <mxGeometry x="30" width="100" height="30" as="geometry">
            <mxRectangle width="100" height="30" as="alternateBounds" />
          </mxGeometry>
        </mxCell>
        <mxCell id="Md4FhOEQ7cLL4MYVZYy_-11" value="" style="shape=partialRectangle;collapsible=0;dropTarget=0;pointerEvents=0;fillColor=none;points=[[0,0.5],[1,0.5]];portConstraint=eastwest;top=0;left=0;right=0;bottom=0;" vertex="1" parent="Md4FhOEQ7cLL4MYVZYy_-1">
          <mxGeometry y="120" width="130" height="30" as="geometry" />
        </mxCell>
        <mxCell id="Md4FhOEQ7cLL4MYVZYy_-12" value="" style="shape=partialRectangle;overflow=hidden;connectable=0;fillColor=none;top=0;left=0;bottom=0;right=0;" vertex="1" parent="Md4FhOEQ7cLL4MYVZYy_-11">
          <mxGeometry width="30" height="30" as="geometry">
            <mxRectangle width="30" height="30" as="alternateBounds" />
          </mxGeometry>
        </mxCell>
        <mxCell id="Md4FhOEQ7cLL4MYVZYy_-13" value="password_hash" style="shape=partialRectangle;overflow=hidden;connectable=0;fillColor=none;top=0;left=0;bottom=0;right=0;align=left;spacingLeft=6;" vertex="1" parent="Md4FhOEQ7cLL4MYVZYy_-11">
          <mxGeometry x="30" width="100" height="30" as="geometry">
            <mxRectangle width="100" height="30" as="alternateBounds" />
          </mxGeometry>
        </mxCell>
        <mxCell id="Md4FhOEQ7cLL4MYVZYy_-14" value="" style="shape=partialRectangle;collapsible=0;dropTarget=0;pointerEvents=0;fillColor=none;points=[[0,0.5],[1,0.5]];portConstraint=eastwest;top=0;left=0;right=0;bottom=0;" vertex="1" parent="Md4FhOEQ7cLL4MYVZYy_-1">
          <mxGeometry y="150" width="130" height="30" as="geometry" />
        </mxCell>
        <mxCell id="Md4FhOEQ7cLL4MYVZYy_-15" value="" style="shape=partialRectangle;overflow=hidden;connectable=0;fillColor=none;top=0;left=0;bottom=0;right=0;" vertex="1" parent="Md4FhOEQ7cLL4MYVZYy_-14">
          <mxGeometry width="30" height="30" as="geometry">
            <mxRectangle width="30" height="30" as="alternateBounds" />
          </mxGeometry>
        </mxCell>
        <mxCell id="Md4FhOEQ7cLL4MYVZYy_-16" value="email_confirmed" style="shape=partialRectangle;overflow=hidden;connectable=0;fillColor=none;top=0;left=0;bottom=0;right=0;align=left;spacingLeft=6;" vertex="1" parent="Md4FhOEQ7cLL4MYVZYy_-14">
          <mxGeometry x="30" width="100" height="30" as="geometry">
            <mxRectangle width="100" height="30" as="alternateBounds" />
          </mxGeometry>
        </mxCell>
        <mxCell id="Md4FhOEQ7cLL4MYVZYy_-17" value="Catering" style="shape=table;startSize=30;container=1;collapsible=1;childLayout=tableLayout;fixedRows=1;rowLines=0;fontStyle=1;align=center;resizeLast=1;" vertex="1" parent="1">
          <mxGeometry x="386" y="580" width="100" height="180" as="geometry" />
        </mxCell>
        <mxCell id="Md4FhOEQ7cLL4MYVZYy_-18" value="" style="shape=partialRectangle;collapsible=0;dropTarget=0;pointerEvents=0;fillColor=none;points=[[0,0.5],[1,0.5]];portConstraint=eastwest;top=0;left=0;right=0;bottom=1;" vertex="1" parent="Md4FhOEQ7cLL4MYVZYy_-17">
          <mxGeometry y="30" width="100" height="30" as="geometry" />
        </mxCell>
        <mxCell id="Md4FhOEQ7cLL4MYVZYy_-19" value="PK" style="shape=partialRectangle;overflow=hidden;connectable=0;fillColor=none;top=0;left=0;bottom=0;right=0;fontStyle=1;" vertex="1" parent="Md4FhOEQ7cLL4MYVZYy_-18">
          <mxGeometry width="30" height="30" as="geometry">
            <mxRectangle width="30" height="30" as="alternateBounds" />
          </mxGeometry>
        </mxCell>
        <mxCell id="Md4FhOEQ7cLL4MYVZYy_-20" value="id" style="shape=partialRectangle;overflow=hidden;connectable=0;fillColor=none;top=0;left=0;bottom=0;right=0;align=left;spacingLeft=6;fontStyle=5;" vertex="1" parent="Md4FhOEQ7cLL4MYVZYy_-18">
          <mxGeometry x="30" width="70" height="30" as="geometry">
            <mxRectangle width="70" height="30" as="alternateBounds" />
          </mxGeometry>
        </mxCell>
        <mxCell id="Md4FhOEQ7cLL4MYVZYy_-21" value="" style="shape=partialRectangle;collapsible=0;dropTarget=0;pointerEvents=0;fillColor=none;points=[[0,0.5],[1,0.5]];portConstraint=eastwest;top=0;left=0;right=0;bottom=0;" vertex="1" parent="Md4FhOEQ7cLL4MYVZYy_-17">
          <mxGeometry y="60" width="100" height="30" as="geometry" />
        </mxCell>
        <mxCell id="Md4FhOEQ7cLL4MYVZYy_-22" value="" style="shape=partialRectangle;overflow=hidden;connectable=0;fillColor=none;top=0;left=0;bottom=0;right=0;" vertex="1" parent="Md4FhOEQ7cLL4MYVZYy_-21">
          <mxGeometry width="30" height="30" as="geometry">
            <mxRectangle width="30" height="30" as="alternateBounds" />
          </mxGeometry>
        </mxCell>
        <mxCell id="Md4FhOEQ7cLL4MYVZYy_-23" value="name" style="shape=partialRectangle;overflow=hidden;connectable=0;fillColor=none;top=0;left=0;bottom=0;right=0;align=left;spacingLeft=6;" vertex="1" parent="Md4FhOEQ7cLL4MYVZYy_-21">
          <mxGeometry x="30" width="70" height="30" as="geometry">
            <mxRectangle width="70" height="30" as="alternateBounds" />
          </mxGeometry>
        </mxCell>
        <mxCell id="Md4FhOEQ7cLL4MYVZYy_-24" value="" style="shape=partialRectangle;collapsible=0;dropTarget=0;pointerEvents=0;fillColor=none;points=[[0,0.5],[1,0.5]];portConstraint=eastwest;top=0;left=0;right=0;bottom=0;" vertex="1" parent="Md4FhOEQ7cLL4MYVZYy_-17">
          <mxGeometry y="90" width="100" height="30" as="geometry" />
        </mxCell>
        <mxCell id="Md4FhOEQ7cLL4MYVZYy_-25" value="" style="shape=partialRectangle;overflow=hidden;connectable=0;fillColor=none;top=0;left=0;bottom=0;right=0;" vertex="1" parent="Md4FhOEQ7cLL4MYVZYy_-24">
          <mxGeometry width="30" height="30" as="geometry">
            <mxRectangle width="30" height="30" as="alternateBounds" />
          </mxGeometry>
        </mxCell>
        <mxCell id="Md4FhOEQ7cLL4MYVZYy_-26" value="street" style="shape=partialRectangle;overflow=hidden;connectable=0;fillColor=none;top=0;left=0;bottom=0;right=0;align=left;spacingLeft=6;" vertex="1" parent="Md4FhOEQ7cLL4MYVZYy_-24">
          <mxGeometry x="30" width="70" height="30" as="geometry">
            <mxRectangle width="70" height="30" as="alternateBounds" />
          </mxGeometry>
        </mxCell>
        <mxCell id="Md4FhOEQ7cLL4MYVZYy_-27" value="" style="shape=partialRectangle;collapsible=0;dropTarget=0;pointerEvents=0;fillColor=none;points=[[0,0.5],[1,0.5]];portConstraint=eastwest;top=0;left=0;right=0;bottom=0;" vertex="1" parent="Md4FhOEQ7cLL4MYVZYy_-17">
          <mxGeometry y="120" width="100" height="30" as="geometry" />
        </mxCell>
        <mxCell id="Md4FhOEQ7cLL4MYVZYy_-28" value="" style="shape=partialRectangle;overflow=hidden;connectable=0;fillColor=none;top=0;left=0;bottom=0;right=0;" vertex="1" parent="Md4FhOEQ7cLL4MYVZYy_-27">
          <mxGeometry width="30" height="30" as="geometry">
            <mxRectangle width="30" height="30" as="alternateBounds" />
          </mxGeometry>
        </mxCell>
        <mxCell id="Md4FhOEQ7cLL4MYVZYy_-29" value="city" style="shape=partialRectangle;overflow=hidden;connectable=0;fillColor=none;top=0;left=0;bottom=0;right=0;align=left;spacingLeft=6;" vertex="1" parent="Md4FhOEQ7cLL4MYVZYy_-27">
          <mxGeometry x="30" width="70" height="30" as="geometry">
            <mxRectangle width="70" height="30" as="alternateBounds" />
          </mxGeometry>
        </mxCell>
        <mxCell id="Md4FhOEQ7cLL4MYVZYy_-30" value="" style="shape=partialRectangle;collapsible=0;dropTarget=0;pointerEvents=0;fillColor=none;points=[[0,0.5],[1,0.5]];portConstraint=eastwest;top=0;left=0;right=0;bottom=0;" vertex="1" parent="Md4FhOEQ7cLL4MYVZYy_-17">
          <mxGeometry y="150" width="100" height="30" as="geometry" />
        </mxCell>
        <mxCell id="Md4FhOEQ7cLL4MYVZYy_-31" value="" style="shape=partialRectangle;overflow=hidden;connectable=0;fillColor=none;top=0;left=0;bottom=0;right=0;" vertex="1" parent="Md4FhOEQ7cLL4MYVZYy_-30">
          <mxGeometry width="30" height="30" as="geometry">
            <mxRectangle width="30" height="30" as="alternateBounds" />
          </mxGeometry>
        </mxCell>
        <mxCell id="Md4FhOEQ7cLL4MYVZYy_-32" value="state" style="shape=partialRectangle;overflow=hidden;connectable=0;fillColor=none;top=0;left=0;bottom=0;right=0;align=left;spacingLeft=6;" vertex="1" parent="Md4FhOEQ7cLL4MYVZYy_-30">
          <mxGeometry x="30" width="70" height="30" as="geometry">
            <mxRectangle width="70" height="30" as="alternateBounds" />
          </mxGeometry>
        </mxCell>
        <mxCell id="Md4FhOEQ7cLL4MYVZYy_-33" value="Order" style="shape=table;startSize=30;container=1;collapsible=1;childLayout=tableLayout;fixedRows=1;rowLines=0;fontStyle=1;align=center;resizeLast=1;" vertex="1" parent="1">
          <mxGeometry x="225" y="490" width="80" height="180" as="geometry" />
        </mxCell>
        <mxCell id="Md4FhOEQ7cLL4MYVZYy_-34" value="" style="shape=partialRectangle;collapsible=0;dropTarget=0;pointerEvents=0;fillColor=none;points=[[0,0.5],[1,0.5]];portConstraint=eastwest;top=0;left=0;right=0;bottom=1;" vertex="1" parent="Md4FhOEQ7cLL4MYVZYy_-33">
          <mxGeometry y="30" width="80" height="30" as="geometry" />
        </mxCell>
        <mxCell id="Md4FhOEQ7cLL4MYVZYy_-35" value="PK" style="shape=partialRectangle;overflow=hidden;connectable=0;fillColor=none;top=0;left=0;bottom=0;right=0;fontStyle=1;" vertex="1" parent="Md4FhOEQ7cLL4MYVZYy_-34">
          <mxGeometry width="30" height="30" as="geometry">
            <mxRectangle width="30" height="30" as="alternateBounds" />
          </mxGeometry>
        </mxCell>
        <mxCell id="Md4FhOEQ7cLL4MYVZYy_-36" value="id" style="shape=partialRectangle;overflow=hidden;connectable=0;fillColor=none;top=0;left=0;bottom=0;right=0;align=left;spacingLeft=6;fontStyle=5;" vertex="1" parent="Md4FhOEQ7cLL4MYVZYy_-34">
          <mxGeometry x="30" width="50" height="30" as="geometry">
            <mxRectangle width="50" height="30" as="alternateBounds" />
          </mxGeometry>
        </mxCell>
        <mxCell id="Md4FhOEQ7cLL4MYVZYy_-37" value="" style="shape=partialRectangle;collapsible=0;dropTarget=0;pointerEvents=0;fillColor=none;points=[[0,0.5],[1,0.5]];portConstraint=eastwest;top=0;left=0;right=0;bottom=0;" vertex="1" parent="Md4FhOEQ7cLL4MYVZYy_-33">
          <mxGeometry y="60" width="80" height="30" as="geometry" />
        </mxCell>
        <mxCell id="Md4FhOEQ7cLL4MYVZYy_-38" value="" style="shape=partialRectangle;overflow=hidden;connectable=0;fillColor=none;top=0;left=0;bottom=0;right=0;" vertex="1" parent="Md4FhOEQ7cLL4MYVZYy_-37">
          <mxGeometry width="30" height="30" as="geometry">
            <mxRectangle width="30" height="30" as="alternateBounds" />
          </mxGeometry>
        </mxCell>
        <mxCell id="Md4FhOEQ7cLL4MYVZYy_-39" value="price" style="shape=partialRectangle;overflow=hidden;connectable=0;fillColor=none;top=0;left=0;bottom=0;right=0;align=left;spacingLeft=6;" vertex="1" parent="Md4FhOEQ7cLL4MYVZYy_-37">
          <mxGeometry x="30" width="50" height="30" as="geometry">
            <mxRectangle width="50" height="30" as="alternateBounds" />
          </mxGeometry>
        </mxCell>
        <mxCell id="Md4FhOEQ7cLL4MYVZYy_-40" value="" style="shape=partialRectangle;collapsible=0;dropTarget=0;pointerEvents=0;fillColor=none;points=[[0,0.5],[1,0.5]];portConstraint=eastwest;top=0;left=0;right=0;bottom=0;" vertex="1" parent="Md4FhOEQ7cLL4MYVZYy_-33">
          <mxGeometry y="90" width="80" height="30" as="geometry" />
        </mxCell>
        <mxCell id="Md4FhOEQ7cLL4MYVZYy_-41" value="" style="shape=partialRectangle;overflow=hidden;connectable=0;fillColor=none;top=0;left=0;bottom=0;right=0;" vertex="1" parent="Md4FhOEQ7cLL4MYVZYy_-40">
          <mxGeometry width="30" height="30" as="geometry">
            <mxRectangle width="30" height="30" as="alternateBounds" />
          </mxGeometry>
        </mxCell>
        <mxCell id="Md4FhOEQ7cLL4MYVZYy_-42" value="status" style="shape=partialRectangle;overflow=hidden;connectable=0;fillColor=none;top=0;left=0;bottom=0;right=0;align=left;spacingLeft=6;" vertex="1" parent="Md4FhOEQ7cLL4MYVZYy_-40">
          <mxGeometry x="30" width="50" height="30" as="geometry">
            <mxRectangle width="50" height="30" as="alternateBounds" />
          </mxGeometry>
        </mxCell>
        <mxCell id="Md4FhOEQ7cLL4MYVZYy_-43" value="" style="shape=partialRectangle;collapsible=0;dropTarget=0;pointerEvents=0;fillColor=none;points=[[0,0.5],[1,0.5]];portConstraint=eastwest;top=0;left=0;right=0;bottom=0;" vertex="1" parent="Md4FhOEQ7cLL4MYVZYy_-33">
          <mxGeometry y="120" width="80" height="30" as="geometry" />
        </mxCell>
        <mxCell id="Md4FhOEQ7cLL4MYVZYy_-44" value="" style="shape=partialRectangle;overflow=hidden;connectable=0;fillColor=none;top=0;left=0;bottom=0;right=0;" vertex="1" parent="Md4FhOEQ7cLL4MYVZYy_-43">
          <mxGeometry width="30" height="30" as="geometry">
            <mxRectangle width="30" height="30" as="alternateBounds" />
          </mxGeometry>
        </mxCell>
        <mxCell id="Md4FhOEQ7cLL4MYVZYy_-45" value="time" style="shape=partialRectangle;overflow=hidden;connectable=0;fillColor=none;top=0;left=0;bottom=0;right=0;align=left;spacingLeft=6;" vertex="1" parent="Md4FhOEQ7cLL4MYVZYy_-43">
          <mxGeometry x="30" width="50" height="30" as="geometry">
            <mxRectangle width="50" height="30" as="alternateBounds" />
          </mxGeometry>
        </mxCell>
        <mxCell id="Md4FhOEQ7cLL4MYVZYy_-46" value="" style="shape=partialRectangle;collapsible=0;dropTarget=0;pointerEvents=0;fillColor=none;points=[[0,0.5],[1,0.5]];portConstraint=eastwest;top=0;left=0;right=0;bottom=0;" vertex="1" parent="Md4FhOEQ7cLL4MYVZYy_-33">
          <mxGeometry y="150" width="80" height="30" as="geometry" />
        </mxCell>
        <mxCell id="Md4FhOEQ7cLL4MYVZYy_-47" value="" style="shape=partialRectangle;overflow=hidden;connectable=0;fillColor=none;top=0;left=0;bottom=0;right=0;" vertex="1" parent="Md4FhOEQ7cLL4MYVZYy_-46">
          <mxGeometry width="30" height="30" as="geometry">
            <mxRectangle width="30" height="30" as="alternateBounds" />
          </mxGeometry>
        </mxCell>
        <mxCell id="Md4FhOEQ7cLL4MYVZYy_-48" value="is_box" style="shape=partialRectangle;overflow=hidden;connectable=0;fillColor=none;top=0;left=0;bottom=0;right=0;align=left;spacingLeft=6;" vertex="1" parent="Md4FhOEQ7cLL4MYVZYy_-46">
          <mxGeometry x="30" width="50" height="30" as="geometry">
            <mxRectangle width="50" height="30" as="alternateBounds" />
          </mxGeometry>
        </mxCell>
        <mxCell id="Md4FhOEQ7cLL4MYVZYy_-49" value="OrderDish" style="shape=table;startSize=30;container=1;collapsible=1;childLayout=tableLayout;fixedRows=1;rowLines=0;fontStyle=1;align=center;resizeLast=1;" vertex="1" parent="1">
          <mxGeometry x="220" y="730" width="90" height="90" as="geometry" />
        </mxCell>
        <mxCell id="Md4FhOEQ7cLL4MYVZYy_-50" value="" style="shape=partialRectangle;collapsible=0;dropTarget=0;pointerEvents=0;fillColor=none;points=[[0,0.5],[1,0.5]];portConstraint=eastwest;top=0;left=0;right=0;bottom=1;" vertex="1" parent="Md4FhOEQ7cLL4MYVZYy_-49">
          <mxGeometry y="30" width="90" height="30" as="geometry" />
        </mxCell>
        <mxCell id="Md4FhOEQ7cLL4MYVZYy_-51" value="PK" style="shape=partialRectangle;overflow=hidden;connectable=0;fillColor=none;top=0;left=0;bottom=0;right=0;fontStyle=1;" vertex="1" parent="Md4FhOEQ7cLL4MYVZYy_-50">
          <mxGeometry width="30" height="30" as="geometry">
            <mxRectangle width="30" height="30" as="alternateBounds" />
          </mxGeometry>
        </mxCell>
        <mxCell id="Md4FhOEQ7cLL4MYVZYy_-52" value="id" style="shape=partialRectangle;overflow=hidden;connectable=0;fillColor=none;top=0;left=0;bottom=0;right=0;align=left;spacingLeft=6;fontStyle=5;" vertex="1" parent="Md4FhOEQ7cLL4MYVZYy_-50">
          <mxGeometry x="30" width="60" height="30" as="geometry">
            <mxRectangle width="60" height="30" as="alternateBounds" />
          </mxGeometry>
        </mxCell>
        <mxCell id="Md4FhOEQ7cLL4MYVZYy_-53" value="" style="shape=partialRectangle;collapsible=0;dropTarget=0;pointerEvents=0;fillColor=none;points=[[0,0.5],[1,0.5]];portConstraint=eastwest;top=0;left=0;right=0;bottom=0;" vertex="1" parent="Md4FhOEQ7cLL4MYVZYy_-49">
          <mxGeometry y="60" width="90" height="30" as="geometry" />
        </mxCell>
        <mxCell id="Md4FhOEQ7cLL4MYVZYy_-54" value="" style="shape=partialRectangle;overflow=hidden;connectable=0;fillColor=none;top=0;left=0;bottom=0;right=0;" vertex="1" parent="Md4FhOEQ7cLL4MYVZYy_-53">
          <mxGeometry width="30" height="30" as="geometry">
            <mxRectangle width="30" height="30" as="alternateBounds" />
          </mxGeometry>
        </mxCell>
        <mxCell id="Md4FhOEQ7cLL4MYVZYy_-55" value="quantity" style="shape=partialRectangle;overflow=hidden;connectable=0;fillColor=none;top=0;left=0;bottom=0;right=0;align=left;spacingLeft=6;" vertex="1" parent="Md4FhOEQ7cLL4MYVZYy_-53">
          <mxGeometry x="30" width="60" height="30" as="geometry">
            <mxRectangle width="60" height="30" as="alternateBounds" />
          </mxGeometry>
        </mxCell>
        <mxCell id="Md4FhOEQ7cLL4MYVZYy_-56" value="Terminal" style="shape=table;startSize=30;container=1;collapsible=1;childLayout=tableLayout;fixedRows=1;rowLines=0;fontStyle=1;align=center;resizeLast=1;" vertex="1" parent="1">
          <mxGeometry x="530" y="460" width="120" height="120" as="geometry" />
        </mxCell>
        <mxCell id="Md4FhOEQ7cLL4MYVZYy_-57" value="" style="shape=partialRectangle;collapsible=0;dropTarget=0;pointerEvents=0;fillColor=none;points=[[0,0.5],[1,0.5]];portConstraint=eastwest;top=0;left=0;right=0;bottom=1;" vertex="1" parent="Md4FhOEQ7cLL4MYVZYy_-56">
          <mxGeometry y="30" width="120" height="30" as="geometry" />
        </mxCell>
        <mxCell id="Md4FhOEQ7cLL4MYVZYy_-58" value="PK" style="shape=partialRectangle;overflow=hidden;connectable=0;fillColor=none;top=0;left=0;bottom=0;right=0;fontStyle=1;" vertex="1" parent="Md4FhOEQ7cLL4MYVZYy_-57">
          <mxGeometry width="30" height="30" as="geometry">
            <mxRectangle width="30" height="30" as="alternateBounds" />
          </mxGeometry>
        </mxCell>
        <mxCell id="Md4FhOEQ7cLL4MYVZYy_-59" value="id" style="shape=partialRectangle;overflow=hidden;connectable=0;fillColor=none;top=0;left=0;bottom=0;right=0;align=left;spacingLeft=6;fontStyle=5;" vertex="1" parent="Md4FhOEQ7cLL4MYVZYy_-57">
          <mxGeometry x="30" width="90" height="30" as="geometry">
            <mxRectangle width="90" height="30" as="alternateBounds" />
          </mxGeometry>
        </mxCell>
        <mxCell id="Md4FhOEQ7cLL4MYVZYy_-60" value="" style="shape=partialRectangle;collapsible=0;dropTarget=0;pointerEvents=0;fillColor=none;points=[[0,0.5],[1,0.5]];portConstraint=eastwest;top=0;left=0;right=0;bottom=0;" vertex="1" parent="Md4FhOEQ7cLL4MYVZYy_-56">
          <mxGeometry y="60" width="120" height="30" as="geometry" />
        </mxCell>
        <mxCell id="Md4FhOEQ7cLL4MYVZYy_-61" value="" style="shape=partialRectangle;overflow=hidden;connectable=0;fillColor=none;top=0;left=0;bottom=0;right=0;" vertex="1" parent="Md4FhOEQ7cLL4MYVZYy_-60">
          <mxGeometry width="30" height="30" as="geometry">
            <mxRectangle width="30" height="30" as="alternateBounds" />
          </mxGeometry>
        </mxCell>
        <mxCell id="Md4FhOEQ7cLL4MYVZYy_-62" value="serial_number" style="shape=partialRectangle;overflow=hidden;connectable=0;fillColor=none;top=0;left=0;bottom=0;right=0;align=left;spacingLeft=6;" vertex="1" parent="Md4FhOEQ7cLL4MYVZYy_-60">
          <mxGeometry x="30" width="90" height="30" as="geometry">
            <mxRectangle width="90" height="30" as="alternateBounds" />
          </mxGeometry>
        </mxCell>
        <mxCell id="Md4FhOEQ7cLL4MYVZYy_-63" value="" style="shape=partialRectangle;collapsible=0;dropTarget=0;pointerEvents=0;fillColor=none;points=[[0,0.5],[1,0.5]];portConstraint=eastwest;top=0;left=0;right=0;bottom=0;" vertex="1" parent="Md4FhOEQ7cLL4MYVZYy_-56">
          <mxGeometry y="90" width="120" height="30" as="geometry" />
        </mxCell>
        <mxCell id="Md4FhOEQ7cLL4MYVZYy_-64" value="" style="shape=partialRectangle;overflow=hidden;connectable=0;fillColor=none;top=0;left=0;bottom=0;right=0;" vertex="1" parent="Md4FhOEQ7cLL4MYVZYy_-63">
          <mxGeometry width="30" height="30" as="geometry">
            <mxRectangle width="30" height="30" as="alternateBounds" />
          </mxGeometry>
        </mxCell>
        <mxCell id="Md4FhOEQ7cLL4MYVZYy_-65" value="cells" style="shape=partialRectangle;overflow=hidden;connectable=0;fillColor=none;top=0;left=0;bottom=0;right=0;align=left;spacingLeft=6;" vertex="1" parent="Md4FhOEQ7cLL4MYVZYy_-63">
          <mxGeometry x="30" width="90" height="30" as="geometry">
            <mxRectangle width="90" height="30" as="alternateBounds" />
          </mxGeometry>
        </mxCell>
        <mxCell id="Md4FhOEQ7cLL4MYVZYy_-66" value="" style="endArrow=ERzeroToOne;startArrow=ERone;endFill=0;startFill=0;endSize=6;edgeStyle=orthogonalEdgeStyle;" edge="1" parent="1" source="Md4FhOEQ7cLL4MYVZYy_-21" target="Md4FhOEQ7cLL4MYVZYy_-56">
          <mxGeometry width="100" height="100" relative="1" as="geometry">
            <mxPoint x="340" y="860" as="sourcePoint" />
            <mxPoint x="340" y="1010" as="targetPoint" />
          </mxGeometry>
        </mxCell>
        <mxCell id="Md4FhOEQ7cLL4MYVZYy_-67" value="" style="endArrow=ERzeroToMany;startArrow=ERone;endFill=1;startFill=0;endSize=6;edgeStyle=orthogonalEdgeStyle;exitX=1;exitY=0.5;exitDx=0;exitDy=0;entryX=0.75;entryY=0;entryDx=0;entryDy=0;" edge="1" parent="1" source="Md4FhOEQ7cLL4MYVZYy_-92" target="Md4FhOEQ7cLL4MYVZYy_-17">
          <mxGeometry width="100" height="100" relative="1" as="geometry">
            <mxPoint x="150" y="480" as="sourcePoint" />
            <mxPoint x="400" y="900" as="targetPoint" />
          </mxGeometry>
        </mxCell>
        <mxCell id="Md4FhOEQ7cLL4MYVZYy_-68" value="" style="endArrow=ERzeroToMany;startArrow=ERone;endFill=1;startFill=0;endSize=6;edgeStyle=orthogonalEdgeStyle;exitX=1;exitY=0.5;exitDx=0;exitDy=0;" edge="1" parent="1" source="Md4FhOEQ7cLL4MYVZYy_-18" target="Md4FhOEQ7cLL4MYVZYy_-104">
          <mxGeometry width="100" height="100" relative="1" as="geometry">
            <mxPoint x="480" y="630" as="sourcePoint" />
            <mxPoint x="340" y="590" as="targetPoint" />
          </mxGeometry>
        </mxCell>
        <mxCell id="Md4FhOEQ7cLL4MYVZYy_-69" value="" style="endArrow=ERzeroToMany;startArrow=ERone;endFill=1;startFill=0;endSize=6;edgeStyle=orthogonalEdgeStyle;" edge="1" parent="1" source="Md4FhOEQ7cLL4MYVZYy_-100" target="Md4FhOEQ7cLL4MYVZYy_-33">
          <mxGeometry width="100" height="100" relative="1" as="geometry">
            <mxPoint x="725" y="880" as="sourcePoint" />
            <mxPoint x="215" y="1100" as="targetPoint" />
          </mxGeometry>
        </mxCell>
        <mxCell id="Md4FhOEQ7cLL4MYVZYy_-70" value="" style="endArrow=ERoneToMany;startArrow=ERone;endFill=0;startFill=0;endSize=6;edgeStyle=orthogonalEdgeStyle;" edge="1" parent="1" source="Md4FhOEQ7cLL4MYVZYy_-33" target="Md4FhOEQ7cLL4MYVZYy_-49">
          <mxGeometry width="100" height="100" relative="1" as="geometry">
            <mxPoint x="735.0000000000002" y="930" as="sourcePoint" />
            <mxPoint x="735.0000000000002" y="980" as="targetPoint" />
            <Array as="points" />
          </mxGeometry>
        </mxCell>
        <mxCell id="Md4FhOEQ7cLL4MYVZYy_-71" value="" style="edgeStyle=orthogonalEdgeStyle;rounded=0;orthogonalLoop=1;jettySize=auto;html=1;endArrow=ERzeroToMany;endFill=0;endSize=6;startArrow=ERone;startFill=0;" edge="1" parent="1" source="Md4FhOEQ7cLL4MYVZYy_-72" target="Md4FhOEQ7cLL4MYVZYy_-49">
          <mxGeometry relative="1" as="geometry">
            <mxPoint x="220" y="820" as="targetPoint" />
          </mxGeometry>
        </mxCell>
        <mxCell id="Md4FhOEQ7cLL4MYVZYy_-72" value="Dish" style="shape=table;startSize=30;container=1;collapsible=1;childLayout=tableLayout;fixedRows=1;rowLines=0;fontStyle=1;align=center;resizeLast=1;" vertex="1" parent="1">
          <mxGeometry x="530" y="670" width="105" height="210" as="geometry" />
        </mxCell>
        <mxCell id="Md4FhOEQ7cLL4MYVZYy_-73" value="" style="shape=partialRectangle;collapsible=0;dropTarget=0;pointerEvents=0;fillColor=none;points=[[0,0.5],[1,0.5]];portConstraint=eastwest;top=0;left=0;right=0;bottom=1;" vertex="1" parent="Md4FhOEQ7cLL4MYVZYy_-72">
          <mxGeometry y="30" width="105" height="30" as="geometry" />
        </mxCell>
        <mxCell id="Md4FhOEQ7cLL4MYVZYy_-74" value="PK" style="shape=partialRectangle;overflow=hidden;connectable=0;fillColor=none;top=0;left=0;bottom=0;right=0;fontStyle=1;" vertex="1" parent="Md4FhOEQ7cLL4MYVZYy_-73">
          <mxGeometry width="30" height="30" as="geometry">
            <mxRectangle width="30" height="30" as="alternateBounds" />
          </mxGeometry>
        </mxCell>
        <mxCell id="Md4FhOEQ7cLL4MYVZYy_-75" value="id" style="shape=partialRectangle;overflow=hidden;connectable=0;fillColor=none;top=0;left=0;bottom=0;right=0;align=left;spacingLeft=6;fontStyle=5;" vertex="1" parent="Md4FhOEQ7cLL4MYVZYy_-73">
          <mxGeometry x="30" width="75" height="30" as="geometry">
            <mxRectangle width="75" height="30" as="alternateBounds" />
          </mxGeometry>
        </mxCell>
        <mxCell id="Md4FhOEQ7cLL4MYVZYy_-76" value="" style="shape=partialRectangle;collapsible=0;dropTarget=0;pointerEvents=0;fillColor=none;points=[[0,0.5],[1,0.5]];portConstraint=eastwest;top=0;left=0;right=0;bottom=0;" vertex="1" parent="Md4FhOEQ7cLL4MYVZYy_-72">
          <mxGeometry y="60" width="105" height="30" as="geometry" />
        </mxCell>
        <mxCell id="Md4FhOEQ7cLL4MYVZYy_-77" value="" style="shape=partialRectangle;overflow=hidden;connectable=0;fillColor=none;top=0;left=0;bottom=0;right=0;" vertex="1" parent="Md4FhOEQ7cLL4MYVZYy_-76">
          <mxGeometry width="30" height="30" as="geometry">
            <mxRectangle width="30" height="30" as="alternateBounds" />
          </mxGeometry>
        </mxCell>
        <mxCell id="Md4FhOEQ7cLL4MYVZYy_-78" value="name" style="shape=partialRectangle;overflow=hidden;connectable=0;fillColor=none;top=0;left=0;bottom=0;right=0;align=left;spacingLeft=6;" vertex="1" parent="Md4FhOEQ7cLL4MYVZYy_-76">
          <mxGeometry x="30" width="75" height="30" as="geometry">
            <mxRectangle width="75" height="30" as="alternateBounds" />
          </mxGeometry>
        </mxCell>
        <mxCell id="Md4FhOEQ7cLL4MYVZYy_-79" value="" style="shape=partialRectangle;collapsible=0;dropTarget=0;pointerEvents=0;fillColor=none;points=[[0,0.5],[1,0.5]];portConstraint=eastwest;top=0;left=0;right=0;bottom=0;" vertex="1" parent="Md4FhOEQ7cLL4MYVZYy_-72">
          <mxGeometry y="90" width="105" height="30" as="geometry" />
        </mxCell>
        <mxCell id="Md4FhOEQ7cLL4MYVZYy_-80" value="" style="shape=partialRectangle;overflow=hidden;connectable=0;fillColor=none;top=0;left=0;bottom=0;right=0;" vertex="1" parent="Md4FhOEQ7cLL4MYVZYy_-79">
          <mxGeometry width="30" height="30" as="geometry">
            <mxRectangle width="30" height="30" as="alternateBounds" />
          </mxGeometry>
        </mxCell>
        <mxCell id="Md4FhOEQ7cLL4MYVZYy_-81" value="price" style="shape=partialRectangle;overflow=hidden;connectable=0;fillColor=none;top=0;left=0;bottom=0;right=0;align=left;spacingLeft=6;" vertex="1" parent="Md4FhOEQ7cLL4MYVZYy_-79">
          <mxGeometry x="30" width="75" height="30" as="geometry">
            <mxRectangle width="75" height="30" as="alternateBounds" />
          </mxGeometry>
        </mxCell>
        <mxCell id="Md4FhOEQ7cLL4MYVZYy_-82" value="" style="shape=partialRectangle;collapsible=0;dropTarget=0;pointerEvents=0;fillColor=none;points=[[0,0.5],[1,0.5]];portConstraint=eastwest;top=0;left=0;right=0;bottom=0;" vertex="1" parent="Md4FhOEQ7cLL4MYVZYy_-72">
          <mxGeometry y="120" width="105" height="30" as="geometry" />
        </mxCell>
        <mxCell id="Md4FhOEQ7cLL4MYVZYy_-83" value="" style="shape=partialRectangle;overflow=hidden;connectable=0;fillColor=none;top=0;left=0;bottom=0;right=0;" vertex="1" parent="Md4FhOEQ7cLL4MYVZYy_-82">
          <mxGeometry width="30" height="30" as="geometry">
            <mxRectangle width="30" height="30" as="alternateBounds" />
          </mxGeometry>
        </mxCell>
        <mxCell id="Md4FhOEQ7cLL4MYVZYy_-84" value="portion" style="shape=partialRectangle;overflow=hidden;connectable=0;fillColor=none;top=0;left=0;bottom=0;right=0;align=left;spacingLeft=6;" vertex="1" parent="Md4FhOEQ7cLL4MYVZYy_-82">
          <mxGeometry x="30" width="75" height="30" as="geometry">
            <mxRectangle width="75" height="30" as="alternateBounds" />
          </mxGeometry>
        </mxCell>
        <mxCell id="Md4FhOEQ7cLL4MYVZYy_-85" value="" style="shape=partialRectangle;collapsible=0;dropTarget=0;pointerEvents=0;fillColor=none;points=[[0,0.5],[1,0.5]];portConstraint=eastwest;top=0;left=0;right=0;bottom=0;" vertex="1" parent="Md4FhOEQ7cLL4MYVZYy_-72">
          <mxGeometry y="150" width="105" height="30" as="geometry" />
        </mxCell>
        <mxCell id="Md4FhOEQ7cLL4MYVZYy_-86" value="" style="shape=partialRectangle;overflow=hidden;connectable=0;fillColor=none;top=0;left=0;bottom=0;right=0;" vertex="1" parent="Md4FhOEQ7cLL4MYVZYy_-85">
          <mxGeometry width="30" height="30" as="geometry">
            <mxRectangle width="30" height="30" as="alternateBounds" />
          </mxGeometry>
        </mxCell>
        <mxCell id="Md4FhOEQ7cLL4MYVZYy_-87" value="description" style="shape=partialRectangle;overflow=hidden;connectable=0;fillColor=none;top=0;left=0;bottom=0;right=0;align=left;spacingLeft=6;" vertex="1" parent="Md4FhOEQ7cLL4MYVZYy_-85">
          <mxGeometry x="30" width="75" height="30" as="geometry">
            <mxRectangle width="75" height="30" as="alternateBounds" />
          </mxGeometry>
        </mxCell>
        <mxCell id="Md4FhOEQ7cLL4MYVZYy_-88" value="" style="shape=partialRectangle;collapsible=0;dropTarget=0;pointerEvents=0;fillColor=none;points=[[0,0.5],[1,0.5]];portConstraint=eastwest;top=0;left=0;right=0;bottom=0;" vertex="1" parent="Md4FhOEQ7cLL4MYVZYy_-72">
          <mxGeometry y="180" width="105" height="30" as="geometry" />
        </mxCell>
        <mxCell id="Md4FhOEQ7cLL4MYVZYy_-89" value="" style="shape=partialRectangle;overflow=hidden;connectable=0;fillColor=none;top=0;left=0;bottom=0;right=0;" vertex="1" parent="Md4FhOEQ7cLL4MYVZYy_-88">
          <mxGeometry width="30" height="30" as="geometry">
            <mxRectangle width="30" height="30" as="alternateBounds" />
          </mxGeometry>
        </mxCell>
        <mxCell id="Md4FhOEQ7cLL4MYVZYy_-90" value="type" style="shape=partialRectangle;overflow=hidden;connectable=0;fillColor=none;top=0;left=0;bottom=0;right=0;align=left;spacingLeft=6;" vertex="1" parent="Md4FhOEQ7cLL4MYVZYy_-88">
          <mxGeometry x="30" width="75" height="30" as="geometry">
            <mxRectangle width="75" height="30" as="alternateBounds" />
          </mxGeometry>
        </mxCell>
        <mxCell id="Md4FhOEQ7cLL4MYVZYy_-91" value="Service" style="shape=table;startSize=30;container=1;collapsible=1;childLayout=tableLayout;fixedRows=1;rowLines=0;fontStyle=1;align=center;resizeLast=1;" vertex="1" parent="1">
          <mxGeometry x="330" y="480" width="100" height="90" as="geometry" />
        </mxCell>
        <mxCell id="Md4FhOEQ7cLL4MYVZYy_-92" value="" style="shape=partialRectangle;collapsible=0;dropTarget=0;pointerEvents=0;fillColor=none;points=[[0,0.5],[1,0.5]];portConstraint=eastwest;top=0;left=0;right=0;bottom=1;" vertex="1" parent="Md4FhOEQ7cLL4MYVZYy_-91">
          <mxGeometry y="30" width="100" height="30" as="geometry" />
        </mxCell>
        <mxCell id="Md4FhOEQ7cLL4MYVZYy_-93" value="PK" style="shape=partialRectangle;overflow=hidden;connectable=0;fillColor=none;top=0;left=0;bottom=0;right=0;fontStyle=1;" vertex="1" parent="Md4FhOEQ7cLL4MYVZYy_-92">
          <mxGeometry width="30" height="30" as="geometry">
            <mxRectangle width="30" height="30" as="alternateBounds" />
          </mxGeometry>
        </mxCell>
        <mxCell id="Md4FhOEQ7cLL4MYVZYy_-94" value="id" style="shape=partialRectangle;overflow=hidden;connectable=0;fillColor=none;top=0;left=0;bottom=0;right=0;align=left;spacingLeft=6;fontStyle=5;" vertex="1" parent="Md4FhOEQ7cLL4MYVZYy_-92">
          <mxGeometry x="30" width="70" height="30" as="geometry">
            <mxRectangle width="70" height="30" as="alternateBounds" />
          </mxGeometry>
        </mxCell>
        <mxCell id="Md4FhOEQ7cLL4MYVZYy_-95" value="" style="shape=partialRectangle;collapsible=0;dropTarget=0;pointerEvents=0;fillColor=none;points=[[0,0.5],[1,0.5]];portConstraint=eastwest;top=0;left=0;right=0;bottom=0;" vertex="1" parent="Md4FhOEQ7cLL4MYVZYy_-91">
          <mxGeometry y="60" width="100" height="30" as="geometry" />
        </mxCell>
        <mxCell id="Md4FhOEQ7cLL4MYVZYy_-96" value="" style="shape=partialRectangle;overflow=hidden;connectable=0;fillColor=none;top=0;left=0;bottom=0;right=0;" vertex="1" parent="Md4FhOEQ7cLL4MYVZYy_-95">
          <mxGeometry width="30" height="30" as="geometry">
            <mxRectangle width="30" height="30" as="alternateBounds" />
          </mxGeometry>
        </mxCell>
        <mxCell id="Md4FhOEQ7cLL4MYVZYy_-97" value="country" style="shape=partialRectangle;overflow=hidden;connectable=0;fillColor=none;top=0;left=0;bottom=0;right=0;align=left;spacingLeft=6;" vertex="1" parent="Md4FhOEQ7cLL4MYVZYy_-95">
          <mxGeometry x="30" width="70" height="30" as="geometry">
            <mxRectangle width="70" height="30" as="alternateBounds" />
          </mxGeometry>
        </mxCell>
        <mxCell id="Md4FhOEQ7cLL4MYVZYy_-98" value="" style="endArrow=ERzeroToMany;startArrow=ERone;endFill=1;startFill=0;endSize=6;edgeStyle=orthogonalEdgeStyle;" edge="1" parent="1" source="Md4FhOEQ7cLL4MYVZYy_-27" target="Md4FhOEQ7cLL4MYVZYy_-73">
          <mxGeometry width="100" height="100" relative="1" as="geometry">
            <mxPoint x="470.0000000000002" y="1025" as="sourcePoint" />
            <mxPoint x="507.4999999999998" y="980.0344827586207" as="targetPoint" />
          </mxGeometry>
        </mxCell>
        <mxCell id="Md4FhOEQ7cLL4MYVZYy_-99" value="" style="edgeStyle=orthogonalEdgeStyle;rounded=0;orthogonalLoop=1;jettySize=auto;html=1;startArrow=ERone;startFill=0;endArrow=ERone;endFill=0;exitX=0.5;exitY=0;exitDx=0;exitDy=0;" edge="1" parent="1" source="Md4FhOEQ7cLL4MYVZYy_-100" target="Md4FhOEQ7cLL4MYVZYy_-1">
          <mxGeometry relative="1" as="geometry" />
        </mxCell>
        <mxCell id="Md4FhOEQ7cLL4MYVZYy_-100" value="Customer" style="shape=table;startSize=30;container=1;collapsible=1;childLayout=tableLayout;fixedRows=1;rowLines=0;fontStyle=1;align=center;resizeLast=1;" vertex="1" parent="1">
          <mxGeometry x="220" y="390" width="90" height="60" as="geometry" />
        </mxCell>
        <mxCell id="Md4FhOEQ7cLL4MYVZYy_-101" value="" style="shape=partialRectangle;collapsible=0;dropTarget=0;pointerEvents=0;fillColor=none;points=[[0,0.5],[1,0.5]];portConstraint=eastwest;top=0;left=0;right=0;bottom=1;" vertex="1" parent="Md4FhOEQ7cLL4MYVZYy_-100">
          <mxGeometry y="30" width="90" height="30" as="geometry" />
        </mxCell>
        <mxCell id="Md4FhOEQ7cLL4MYVZYy_-102" value="PK" style="shape=partialRectangle;overflow=hidden;connectable=0;fillColor=none;top=0;left=0;bottom=0;right=0;fontStyle=1;" vertex="1" parent="Md4FhOEQ7cLL4MYVZYy_-101">
          <mxGeometry width="30" height="30" as="geometry">
            <mxRectangle width="30" height="30" as="alternateBounds" />
          </mxGeometry>
        </mxCell>
        <mxCell id="Md4FhOEQ7cLL4MYVZYy_-103" value="id" style="shape=partialRectangle;overflow=hidden;connectable=0;fillColor=none;top=0;left=0;bottom=0;right=0;align=left;spacingLeft=6;fontStyle=5;" vertex="1" parent="Md4FhOEQ7cLL4MYVZYy_-101">
          <mxGeometry x="30" width="60" height="30" as="geometry">
            <mxRectangle width="60" height="30" as="alternateBounds" />
          </mxGeometry>
        </mxCell>
        <mxCell id="Md4FhOEQ7cLL4MYVZYy_-104" value="Employee" style="shape=table;startSize=30;container=1;collapsible=1;childLayout=tableLayout;fixedRows=1;rowLines=0;fontStyle=1;align=center;resizeLast=1;" vertex="1" parent="1">
          <mxGeometry x="450" y="390" width="90" height="60" as="geometry" />
        </mxCell>
        <mxCell id="Md4FhOEQ7cLL4MYVZYy_-105" value="" style="shape=partialRectangle;collapsible=0;dropTarget=0;pointerEvents=0;fillColor=none;points=[[0,0.5],[1,0.5]];portConstraint=eastwest;top=0;left=0;right=0;bottom=1;" vertex="1" parent="Md4FhOEQ7cLL4MYVZYy_-104">
          <mxGeometry y="30" width="90" height="30" as="geometry" />
        </mxCell>
        <mxCell id="Md4FhOEQ7cLL4MYVZYy_-106" value="PK" style="shape=partialRectangle;overflow=hidden;connectable=0;fillColor=none;top=0;left=0;bottom=0;right=0;fontStyle=1;" vertex="1" parent="Md4FhOEQ7cLL4MYVZYy_-105">
          <mxGeometry width="30" height="30" as="geometry">
            <mxRectangle width="30" height="30" as="alternateBounds" />
          </mxGeometry>
        </mxCell>
        <mxCell id="Md4FhOEQ7cLL4MYVZYy_-107" value="id" style="shape=partialRectangle;overflow=hidden;connectable=0;fillColor=none;top=0;left=0;bottom=0;right=0;align=left;spacingLeft=6;fontStyle=5;" vertex="1" parent="Md4FhOEQ7cLL4MYVZYy_-105">
          <mxGeometry x="30" width="60" height="30" as="geometry">
            <mxRectangle width="60" height="30" as="alternateBounds" />
          </mxGeometry>
        </mxCell>
        <mxCell id="Md4FhOEQ7cLL4MYVZYy_-108" value="" style="edgeStyle=orthogonalEdgeStyle;rounded=0;orthogonalLoop=1;jettySize=auto;html=1;startArrow=ERone;startFill=0;endArrow=ERone;endFill=0;exitX=0.5;exitY=0;exitDx=0;exitDy=0;" edge="1" parent="1" source="Md4FhOEQ7cLL4MYVZYy_-104" target="Md4FhOEQ7cLL4MYVZYy_-1">
          <mxGeometry relative="1" as="geometry">
            <mxPoint x="215" y="520" as="sourcePoint" />
            <mxPoint x="325" y="395" as="targetPoint" />
          </mxGeometry>
        </mxCell>
        <mxCell id="Md4FhOEQ7cLL4MYVZYy_-109" value="" style="edgeStyle=orthogonalEdgeStyle;rounded=0;orthogonalLoop=1;jettySize=auto;html=1;startArrow=ERone;startFill=0;endArrow=ERone;endFill=0;" edge="1" parent="1" source="Md4FhOEQ7cLL4MYVZYy_-1" target="Md4FhOEQ7cLL4MYVZYy_-91">
          <mxGeometry relative="1" as="geometry">
            <mxPoint x="483" y="380" as="sourcePoint" />
            <mxPoint x="455" y="380" as="targetPoint" />
          </mxGeometry>
        </mxCell>
        <mxCell id="Md4FhOEQ7cLL4MYVZYy_-110" value="" style="endArrow=ERzeroToMany;startArrow=ERone;endFill=1;startFill=0;endSize=6;edgeStyle=orthogonalEdgeStyle;" edge="1" parent="1" source="Md4FhOEQ7cLL4MYVZYy_-18" target="Md4FhOEQ7cLL4MYVZYy_-43">
          <mxGeometry width="100" height="100" relative="1" as="geometry">
            <mxPoint x="440" y="655" as="sourcePoint" />
            <mxPoint x="525" y="460" as="targetPoint" />
          </mxGeometry>
        </mxCell>
      </root>
    </mxGraphModel>
  </diagram>
  <diagram id="U-L03c6XndNQLVejBg31" name="Use-Case">
    <mxGraphModel dx="1434" dy="836" grid="1" gridSize="10" guides="1" tooltips="1" connect="1" arrows="1" fold="1" page="1" pageScale="1" pageWidth="850" pageHeight="1100" math="0" shadow="0">
      <root>
        <mxCell id="0" />
        <mxCell id="1" parent="0" />
        <mxCell id="DjoerSDfQ0twz3AZHhsx-1" value="Працівник" style="shape=umlActor;verticalLabelPosition=bottom;verticalAlign=top;outlineConnect=0;html=1;fontSize=10;" parent="1" vertex="1">
          <mxGeometry x="730" y="710" width="30" height="60" as="geometry" />
        </mxCell>
        <mxCell id="DjoerSDfQ0twz3AZHhsx-2" value="Адміністратор" style="shape=umlActor;verticalLabelPosition=bottom;verticalAlign=top;outlineConnect=0;html=1;fontSize=10;" parent="1" vertex="1">
          <mxGeometry x="730" y="505" width="30" height="60" as="geometry" />
        </mxCell>
        <mxCell id="DjoerSDfQ0twz3AZHhsx-3" value="Клієнт" style="shape=umlActor;verticalLabelPosition=bottom;verticalAlign=top;outlineConnect=0;html=1;fontSize=10;" parent="1" vertex="1">
          <mxGeometry x="70" y="580" width="30" height="60" as="geometry" />
        </mxCell>
        <mxCell id="DjoerSDfQ0twz3AZHhsx-4" value="Сервіс" style="shape=umlActor;verticalLabelPosition=bottom;verticalAlign=top;outlineConnect=0;html=1;fontSize=10;" parent="1" vertex="1">
          <mxGeometry x="70" y="320" width="30" height="60" as="geometry" />
        </mxCell>
        <mxCell id="DjoerSDfQ0twz3AZHhsx-5" value="" style="rounded=0;whiteSpace=wrap;html=1;fontSize=10;" parent="1" vertex="1">
          <mxGeometry x="110" y="310" width="590" height="550" as="geometry" />
        </mxCell>
        <mxCell id="DjoerSDfQ0twz3AZHhsx-6" value="Перегляд списку клієнтів" style="ellipse;whiteSpace=wrap;html=1;fontSize=10;" parent="1" vertex="1">
          <mxGeometry x="570" y="620" width="110" height="50" as="geometry" />
        </mxCell>
        <mxCell id="DjoerSDfQ0twz3AZHhsx-7" value="Перегляд списку сервісів" style="ellipse;whiteSpace=wrap;html=1;fontSize=10;" parent="1" vertex="1">
          <mxGeometry x="290" y="570" width="120" height="40" as="geometry" />
        </mxCell>
        <mxCell id="DjoerSDfQ0twz3AZHhsx-8" value="Перегляд списку працівників" style="ellipse;whiteSpace=wrap;html=1;fontSize=10;" parent="1" vertex="1">
          <mxGeometry x="120" y="510" width="90" height="40" as="geometry" />
        </mxCell>
        <mxCell id="DjoerSDfQ0twz3AZHhsx-9" value="" style="endArrow=none;rounded=0;html=1;fontSize=10;" parent="1" source="DjoerSDfQ0twz3AZHhsx-4" target="DjoerSDfQ0twz3AZHhsx-8" edge="1">
          <mxGeometry width="50" height="50" relative="1" as="geometry">
            <mxPoint x="270" y="430" as="sourcePoint" />
            <mxPoint x="320" y="380" as="targetPoint" />
          </mxGeometry>
        </mxCell>
        <mxCell id="DjoerSDfQ0twz3AZHhsx-10" value="" style="endArrow=none;rounded=0;html=1;fontSize=10;" parent="1" source="DjoerSDfQ0twz3AZHhsx-2" target="DjoerSDfQ0twz3AZHhsx-7" edge="1">
          <mxGeometry width="50" height="50" relative="1" as="geometry">
            <mxPoint x="170" y="310" as="sourcePoint" />
            <mxPoint x="250" y="310" as="targetPoint" />
          </mxGeometry>
        </mxCell>
        <mxCell id="DjoerSDfQ0twz3AZHhsx-11" value="" style="endArrow=none;rounded=0;html=1;fontSize=10;" parent="1" source="DjoerSDfQ0twz3AZHhsx-2" target="DjoerSDfQ0twz3AZHhsx-6" edge="1">
          <mxGeometry width="50" height="50" relative="1" as="geometry">
            <mxPoint x="170" y="503" as="sourcePoint" />
            <mxPoint x="262" y="519" as="targetPoint" />
          </mxGeometry>
        </mxCell>
        <mxCell id="DjoerSDfQ0twz3AZHhsx-12" value="Перегляд списку закладів харчування" style="ellipse;whiteSpace=wrap;html=1;fontSize=10;" parent="1" vertex="1">
          <mxGeometry x="280" y="450" width="140" height="50" as="geometry" />
        </mxCell>
        <mxCell id="DjoerSDfQ0twz3AZHhsx-13" value="" style="endArrow=none;rounded=0;html=1;fontSize=10;" parent="1" source="DjoerSDfQ0twz3AZHhsx-4" target="DjoerSDfQ0twz3AZHhsx-12" edge="1">
          <mxGeometry width="50" height="50" relative="1" as="geometry">
            <mxPoint x="170" y="310" as="sourcePoint" />
            <mxPoint x="250" y="310" as="targetPoint" />
          </mxGeometry>
        </mxCell>
        <mxCell id="DjoerSDfQ0twz3AZHhsx-14" value="" style="endArrow=none;rounded=0;html=1;fontSize=10;" parent="1" source="DjoerSDfQ0twz3AZHhsx-3" target="DjoerSDfQ0twz3AZHhsx-12" edge="1">
          <mxGeometry width="50" height="50" relative="1" as="geometry">
            <mxPoint x="170" y="322" as="sourcePoint" />
            <mxPoint x="331" y="449" as="targetPoint" />
          </mxGeometry>
        </mxCell>
        <mxCell id="DjoerSDfQ0twz3AZHhsx-15" value="" style="rounded=0;orthogonalLoop=1;jettySize=auto;dashed=1;html=1;fontSize=10;" parent="1" source="DjoerSDfQ0twz3AZHhsx-17" target="DjoerSDfQ0twz3AZHhsx-12" edge="1">
          <mxGeometry relative="1" as="geometry" />
        </mxCell>
        <mxCell id="DjoerSDfQ0twz3AZHhsx-16" value="&amp;lt;&amp;lt;extends&amp;gt;&amp;gt;" style="edgeLabel;align=center;verticalAlign=middle;resizable=0;points=[];html=1;fontSize=10;" parent="DjoerSDfQ0twz3AZHhsx-15" vertex="1" connectable="0">
          <mxGeometry x="0.1615" relative="1" as="geometry">
            <mxPoint y="-8" as="offset" />
          </mxGeometry>
        </mxCell>
        <mxCell id="DjoerSDfQ0twz3AZHhsx-17" value="Додавання, редагування, видалення закладу харчування" style="ellipse;whiteSpace=wrap;html=1;fontSize=10;" parent="1" vertex="1">
          <mxGeometry x="280" y="360" width="140" height="55" as="geometry" />
        </mxCell>
        <mxCell id="DjoerSDfQ0twz3AZHhsx-18" value="" style="endArrow=none;rounded=0;html=1;fontSize=10;" parent="1" source="DjoerSDfQ0twz3AZHhsx-4" target="DjoerSDfQ0twz3AZHhsx-17" edge="1">
          <mxGeometry width="50" height="50" relative="1" as="geometry">
            <mxPoint x="170" y="322" as="sourcePoint" />
            <mxPoint x="331" y="449" as="targetPoint" />
          </mxGeometry>
        </mxCell>
        <mxCell id="DjoerSDfQ0twz3AZHhsx-19" value="" style="rounded=0;orthogonalLoop=1;jettySize=auto;dashed=1;html=1;fontSize=10;" parent="1" source="DjoerSDfQ0twz3AZHhsx-21" target="DjoerSDfQ0twz3AZHhsx-12" edge="1">
          <mxGeometry relative="1" as="geometry">
            <mxPoint x="424" y="406" as="sourcePoint" />
            <mxPoint x="396" y="444" as="targetPoint" />
          </mxGeometry>
        </mxCell>
        <mxCell id="DjoerSDfQ0twz3AZHhsx-20" value="&amp;lt;&amp;lt;extends&amp;gt;&amp;gt;" style="edgeLabel;align=center;verticalAlign=middle;resizable=0;points=[];html=1;fontSize=10;" parent="DjoerSDfQ0twz3AZHhsx-19" vertex="1" connectable="0">
          <mxGeometry x="0.1615" relative="1" as="geometry">
            <mxPoint x="6" as="offset" />
          </mxGeometry>
        </mxCell>
        <mxCell id="DjoerSDfQ0twz3AZHhsx-21" value="Перегляд списку страв" style="ellipse;whiteSpace=wrap;html=1;fontSize=10;" parent="1" vertex="1">
          <mxGeometry x="500" y="455" width="120" height="40" as="geometry" />
        </mxCell>
        <mxCell id="DjoerSDfQ0twz3AZHhsx-22" value="Додавання, редагування, видалення страв" style="ellipse;whiteSpace=wrap;html=1;fontSize=10;" parent="1" vertex="1">
          <mxGeometry x="500" y="320" width="120" height="70" as="geometry" />
        </mxCell>
        <mxCell id="DjoerSDfQ0twz3AZHhsx-23" value="" style="endArrow=none;rounded=0;html=1;fontSize=10;" parent="1" source="DjoerSDfQ0twz3AZHhsx-4" target="DjoerSDfQ0twz3AZHhsx-22" edge="1">
          <mxGeometry width="50" height="50" relative="1" as="geometry">
            <mxPoint x="170" y="313" as="sourcePoint" />
            <mxPoint x="393" y="358" as="targetPoint" />
          </mxGeometry>
        </mxCell>
        <mxCell id="DjoerSDfQ0twz3AZHhsx-24" value="" style="rounded=0;orthogonalLoop=1;jettySize=auto;dashed=1;html=1;fontSize=10;" parent="1" source="DjoerSDfQ0twz3AZHhsx-22" target="DjoerSDfQ0twz3AZHhsx-21" edge="1">
          <mxGeometry relative="1" as="geometry">
            <mxPoint x="424" y="406" as="sourcePoint" />
            <mxPoint x="396" y="444" as="targetPoint" />
          </mxGeometry>
        </mxCell>
        <mxCell id="DjoerSDfQ0twz3AZHhsx-25" value="&amp;lt;&amp;lt;extends&amp;gt;&amp;gt;" style="edgeLabel;align=center;verticalAlign=middle;resizable=0;points=[];html=1;fontSize=10;" parent="DjoerSDfQ0twz3AZHhsx-24" vertex="1" connectable="0">
          <mxGeometry x="0.1615" relative="1" as="geometry">
            <mxPoint y="-18" as="offset" />
          </mxGeometry>
        </mxCell>
        <mxCell id="DjoerSDfQ0twz3AZHhsx-26" value="Перегляд списку замовлень" style="ellipse;whiteSpace=wrap;html=1;fontSize=10;" parent="1" vertex="1">
          <mxGeometry x="380" y="670" width="110" height="50" as="geometry" />
        </mxCell>
        <mxCell id="DjoerSDfQ0twz3AZHhsx-27" value="" style="endArrow=none;rounded=0;html=1;fontSize=10;" parent="1" source="DjoerSDfQ0twz3AZHhsx-3" target="DjoerSDfQ0twz3AZHhsx-26" edge="1">
          <mxGeometry width="50" height="50" relative="1" as="geometry">
            <mxPoint x="170" y="582" as="sourcePoint" />
            <mxPoint x="322" y="504" as="targetPoint" />
          </mxGeometry>
        </mxCell>
        <mxCell id="DjoerSDfQ0twz3AZHhsx-28" value="" style="endArrow=none;rounded=0;html=1;fontSize=10;" parent="1" source="DjoerSDfQ0twz3AZHhsx-1" target="DjoerSDfQ0twz3AZHhsx-26" edge="1">
          <mxGeometry width="50" height="50" relative="1" as="geometry">
            <mxPoint x="170" y="592" as="sourcePoint" />
            <mxPoint x="381" y="614" as="targetPoint" />
          </mxGeometry>
        </mxCell>
        <mxCell id="DjoerSDfQ0twz3AZHhsx-29" value="Додавання замовлення" style="ellipse;whiteSpace=wrap;html=1;fontSize=10;" parent="1" vertex="1">
          <mxGeometry x="270" y="730" width="90" height="60" as="geometry" />
        </mxCell>
        <mxCell id="DjoerSDfQ0twz3AZHhsx-30" value="" style="rounded=0;orthogonalLoop=1;jettySize=auto;dashed=1;html=1;fontSize=10;" parent="1" source="DjoerSDfQ0twz3AZHhsx-29" target="DjoerSDfQ0twz3AZHhsx-26" edge="1">
          <mxGeometry relative="1" as="geometry">
            <mxPoint x="370" y="410" as="sourcePoint" />
            <mxPoint x="370" y="440" as="targetPoint" />
          </mxGeometry>
        </mxCell>
        <mxCell id="DjoerSDfQ0twz3AZHhsx-31" value="&amp;lt;&amp;lt;extends&amp;gt;&amp;gt;" style="edgeLabel;align=center;verticalAlign=middle;resizable=0;points=[];html=1;fontSize=10;" parent="DjoerSDfQ0twz3AZHhsx-30" vertex="1" connectable="0">
          <mxGeometry x="0.1615" relative="1" as="geometry">
            <mxPoint x="-13" y="1" as="offset" />
          </mxGeometry>
        </mxCell>
        <mxCell id="DjoerSDfQ0twz3AZHhsx-32" value="" style="rounded=0;orthogonalLoop=1;jettySize=auto;dashed=1;html=1;fontSize=10;" parent="1" source="DjoerSDfQ0twz3AZHhsx-34" target="DjoerSDfQ0twz3AZHhsx-12" edge="1">
          <mxGeometry relative="1" as="geometry">
            <mxPoint x="510" y="480" as="sourcePoint" />
            <mxPoint x="430" y="480" as="targetPoint" />
          </mxGeometry>
        </mxCell>
        <mxCell id="DjoerSDfQ0twz3AZHhsx-33" value="&amp;lt;&amp;lt;extends&amp;gt;&amp;gt;" style="edgeLabel;align=center;verticalAlign=middle;resizable=0;points=[];html=1;fontSize=10;" parent="DjoerSDfQ0twz3AZHhsx-32" vertex="1" connectable="0">
          <mxGeometry x="0.1615" relative="1" as="geometry">
            <mxPoint x="2" y="3" as="offset" />
          </mxGeometry>
        </mxCell>
        <mxCell id="DjoerSDfQ0twz3AZHhsx-34" value="Пошук за назвою" style="ellipse;whiteSpace=wrap;html=1;fontSize=10;" parent="1" vertex="1">
          <mxGeometry x="405" y="520" width="110" height="30" as="geometry" />
        </mxCell>
        <mxCell id="DjoerSDfQ0twz3AZHhsx-35" value="" style="rounded=0;orthogonalLoop=1;jettySize=auto;dashed=1;html=1;fontSize=10;" parent="1" source="DjoerSDfQ0twz3AZHhsx-34" target="DjoerSDfQ0twz3AZHhsx-21" edge="1">
          <mxGeometry relative="1" as="geometry">
            <mxPoint x="469" y="551" as="sourcePoint" />
            <mxPoint x="411" y="509" as="targetPoint" />
          </mxGeometry>
        </mxCell>
        <mxCell id="DjoerSDfQ0twz3AZHhsx-36" value="&amp;lt;&amp;lt;extends&amp;gt;&amp;gt;" style="edgeLabel;align=center;verticalAlign=middle;resizable=0;points=[];html=1;fontSize=10;" parent="DjoerSDfQ0twz3AZHhsx-35" vertex="1" connectable="0">
          <mxGeometry x="0.1615" relative="1" as="geometry">
            <mxPoint x="-6" y="5" as="offset" />
          </mxGeometry>
        </mxCell>
        <mxCell id="DjoerSDfQ0twz3AZHhsx-37" value="" style="endArrow=none;rounded=0;html=1;fontSize=10;" parent="1" source="DjoerSDfQ0twz3AZHhsx-3" target="DjoerSDfQ0twz3AZHhsx-7" edge="1">
          <mxGeometry width="50" height="50" relative="1" as="geometry">
            <mxPoint x="170" y="596" as="sourcePoint" />
            <mxPoint x="319" y="659" as="targetPoint" />
          </mxGeometry>
        </mxCell>
        <mxCell id="DjoerSDfQ0twz3AZHhsx-38" value="" style="rounded=0;orthogonalLoop=1;jettySize=auto;dashed=1;html=1;fontSize=10;" parent="1" source="DjoerSDfQ0twz3AZHhsx-34" target="DjoerSDfQ0twz3AZHhsx-7" edge="1">
          <mxGeometry relative="1" as="geometry">
            <mxPoint x="501" y="556" as="sourcePoint" />
            <mxPoint x="539" y="514" as="targetPoint" />
          </mxGeometry>
        </mxCell>
        <mxCell id="DjoerSDfQ0twz3AZHhsx-39" value="&amp;lt;&amp;lt;extends&amp;gt;&amp;gt;" style="edgeLabel;align=center;verticalAlign=middle;resizable=0;points=[];html=1;fontSize=10;" parent="DjoerSDfQ0twz3AZHhsx-38" vertex="1" connectable="0">
          <mxGeometry x="0.1615" relative="1" as="geometry">
            <mxPoint x="6" y="-3" as="offset" />
          </mxGeometry>
        </mxCell>
        <mxCell id="DjoerSDfQ0twz3AZHhsx-40" value="Фільтрація за типами" style="ellipse;whiteSpace=wrap;html=1;fontSize=10;" parent="1" vertex="1">
          <mxGeometry x="425" y="370" width="90" height="40" as="geometry" />
        </mxCell>
        <mxCell id="DjoerSDfQ0twz3AZHhsx-41" value="" style="rounded=0;orthogonalLoop=1;jettySize=auto;dashed=1;html=1;fontSize=10;" parent="1" source="DjoerSDfQ0twz3AZHhsx-40" target="DjoerSDfQ0twz3AZHhsx-21" edge="1">
          <mxGeometry relative="1" as="geometry">
            <mxPoint x="501" y="556" as="sourcePoint" />
            <mxPoint x="539" y="514" as="targetPoint" />
          </mxGeometry>
        </mxCell>
        <mxCell id="DjoerSDfQ0twz3AZHhsx-42" value="&amp;lt;&amp;lt;extends&amp;gt;&amp;gt;" style="edgeLabel;align=center;verticalAlign=middle;resizable=0;points=[];html=1;fontSize=10;" parent="DjoerSDfQ0twz3AZHhsx-41" vertex="1" connectable="0">
          <mxGeometry x="0.1615" relative="1" as="geometry">
            <mxPoint x="-9" y="-6" as="offset" />
          </mxGeometry>
        </mxCell>
        <mxCell id="DjoerSDfQ0twz3AZHhsx-43" value="" style="rounded=0;orthogonalLoop=1;jettySize=auto;dashed=1;html=1;fontSize=10;" parent="1" source="DjoerSDfQ0twz3AZHhsx-12" target="DjoerSDfQ0twz3AZHhsx-7" edge="1">
          <mxGeometry relative="1" as="geometry">
            <mxPoint x="439" y="556" as="sourcePoint" />
            <mxPoint x="401" y="514" as="targetPoint" />
          </mxGeometry>
        </mxCell>
        <mxCell id="DjoerSDfQ0twz3AZHhsx-44" value="&amp;lt;&amp;lt;extends&amp;gt;&amp;gt;" style="edgeLabel;align=center;verticalAlign=middle;resizable=0;points=[];html=1;fontSize=10;" parent="DjoerSDfQ0twz3AZHhsx-43" vertex="1" connectable="0">
          <mxGeometry x="0.1615" relative="1" as="geometry">
            <mxPoint y="-11" as="offset" />
          </mxGeometry>
        </mxCell>
        <mxCell id="DjoerSDfQ0twz3AZHhsx-45" value="Реєстрація сервісу" style="ellipse;whiteSpace=wrap;html=1;fontSize=10;" parent="1" vertex="1">
          <mxGeometry x="570" y="420" width="120" height="30" as="geometry" />
        </mxCell>
        <mxCell id="DjoerSDfQ0twz3AZHhsx-46" value="" style="endArrow=none;rounded=0;html=1;fontSize=10;" parent="1" source="DjoerSDfQ0twz3AZHhsx-2" target="DjoerSDfQ0twz3AZHhsx-45" edge="1">
          <mxGeometry width="50" height="50" relative="1" as="geometry">
            <mxPoint x="740" y="717" as="sourcePoint" />
            <mxPoint x="518" y="826" as="targetPoint" />
          </mxGeometry>
        </mxCell>
        <mxCell id="DjoerSDfQ0twz3AZHhsx-47" value="Виконання замовлення" style="ellipse;whiteSpace=wrap;html=1;fontSize=10;" parent="1" vertex="1">
          <mxGeometry x="470" y="715" width="110" height="50" as="geometry" />
        </mxCell>
        <mxCell id="DjoerSDfQ0twz3AZHhsx-48" value="Отримання замовлення" style="ellipse;whiteSpace=wrap;html=1;fontSize=10;" parent="1" vertex="1">
          <mxGeometry x="240" y="800" width="110" height="50" as="geometry" />
        </mxCell>
        <mxCell id="DjoerSDfQ0twz3AZHhsx-49" value="" style="endArrow=none;rounded=0;html=1;fontSize=10;" parent="1" source="DjoerSDfQ0twz3AZHhsx-1" target="DjoerSDfQ0twz3AZHhsx-48" edge="1">
          <mxGeometry width="50" height="50" relative="1" as="geometry">
            <mxPoint x="170" y="737" as="sourcePoint" />
            <mxPoint x="309" y="710" as="targetPoint" />
          </mxGeometry>
        </mxCell>
        <mxCell id="DjoerSDfQ0twz3AZHhsx-50" value="" style="endArrow=none;rounded=0;html=1;fontSize=10;" parent="1" source="DjoerSDfQ0twz3AZHhsx-3" target="DjoerSDfQ0twz3AZHhsx-48" edge="1">
          <mxGeometry width="50" height="50" relative="1" as="geometry">
            <mxPoint x="170" y="644" as="sourcePoint" />
            <mxPoint x="314" y="686" as="targetPoint" />
          </mxGeometry>
        </mxCell>
        <mxCell id="DjoerSDfQ0twz3AZHhsx-51" value="" style="endArrow=none;rounded=0;html=1;fontSize=10;" parent="1" source="DjoerSDfQ0twz3AZHhsx-1" target="DjoerSDfQ0twz3AZHhsx-47" edge="1">
          <mxGeometry width="50" height="50" relative="1" as="geometry">
            <mxPoint x="170" y="751" as="sourcePoint" />
            <mxPoint x="245" y="804" as="targetPoint" />
          </mxGeometry>
        </mxCell>
        <mxCell id="DjoerSDfQ0twz3AZHhsx-52" value="" style="rounded=0;orthogonalLoop=1;jettySize=auto;dashed=1;html=1;fontSize=10;" parent="1" source="DjoerSDfQ0twz3AZHhsx-54" target="DjoerSDfQ0twz3AZHhsx-48" edge="1">
          <mxGeometry relative="1" as="geometry">
            <mxPoint x="386" y="770" as="sourcePoint" />
            <mxPoint x="309" y="725" as="targetPoint" />
          </mxGeometry>
        </mxCell>
        <mxCell id="DjoerSDfQ0twz3AZHhsx-53" value="&amp;lt;&amp;lt;extends&amp;gt;&amp;gt;" style="edgeLabel;align=center;verticalAlign=middle;resizable=0;points=[];html=1;fontSize=10;" parent="DjoerSDfQ0twz3AZHhsx-52" vertex="1" connectable="0">
          <mxGeometry x="0.1615" relative="1" as="geometry">
            <mxPoint x="-17" y="-38" as="offset" />
          </mxGeometry>
        </mxCell>
        <mxCell id="DjoerSDfQ0twz3AZHhsx-54" value="Отримання замовлення через термінал" style="ellipse;whiteSpace=wrap;html=1;fontSize=10;" parent="1" vertex="1">
          <mxGeometry x="165" y="650" width="90" height="50" as="geometry" />
        </mxCell>
        <mxCell id="DjoerSDfQ0twz3AZHhsx-55" value="" style="endArrow=none;rounded=0;html=1;fontSize=10;" parent="1" source="DjoerSDfQ0twz3AZHhsx-3" target="DjoerSDfQ0twz3AZHhsx-54" edge="1">
          <mxGeometry width="50" height="50" relative="1" as="geometry">
            <mxPoint x="170" y="663" as="sourcePoint" />
            <mxPoint x="259" y="801" as="targetPoint" />
          </mxGeometry>
        </mxCell>
        <mxCell id="DjoerSDfQ0twz3AZHhsx-56" value="Блокування&lt;br style=&quot;font-size: 10px;&quot;&gt;сервісів" style="ellipse;whiteSpace=wrap;html=1;fontSize=10;" parent="1" vertex="1">
          <mxGeometry x="570" y="560" width="110" height="50" as="geometry" />
        </mxCell>
        <mxCell id="DjoerSDfQ0twz3AZHhsx-57" value="" style="rounded=0;orthogonalLoop=1;jettySize=auto;dashed=1;html=1;fontSize=10;" parent="1" source="DjoerSDfQ0twz3AZHhsx-56" target="DjoerSDfQ0twz3AZHhsx-7" edge="1">
          <mxGeometry relative="1" as="geometry">
            <mxPoint x="360" y="510" as="sourcePoint" />
            <mxPoint x="360" y="620" as="targetPoint" />
          </mxGeometry>
        </mxCell>
        <mxCell id="DjoerSDfQ0twz3AZHhsx-58" value="&amp;lt;&amp;lt;extends&amp;gt;&amp;gt;" style="edgeLabel;align=center;verticalAlign=middle;resizable=0;points=[];html=1;fontSize=10;" parent="DjoerSDfQ0twz3AZHhsx-57" vertex="1" connectable="0">
          <mxGeometry x="0.1615" relative="1" as="geometry">
            <mxPoint x="12" y="2" as="offset" />
          </mxGeometry>
        </mxCell>
        <mxCell id="DjoerSDfQ0twz3AZHhsx-59" value="" style="endArrow=none;rounded=0;html=1;fontSize=10;" parent="1" source="DjoerSDfQ0twz3AZHhsx-2" target="DjoerSDfQ0twz3AZHhsx-56" edge="1">
          <mxGeometry width="50" height="50" relative="1" as="geometry">
            <mxPoint x="740" y="640" as="sourcePoint" />
            <mxPoint x="420" y="640" as="targetPoint" />
          </mxGeometry>
        </mxCell>
        <mxCell id="DjoerSDfQ0twz3AZHhsx-60" value="Блокування клієнтів" style="ellipse;whiteSpace=wrap;html=1;fontSize=10;" parent="1" vertex="1">
          <mxGeometry x="380" y="610" width="110" height="50" as="geometry" />
        </mxCell>
        <mxCell id="DjoerSDfQ0twz3AZHhsx-61" value="" style="rounded=0;orthogonalLoop=1;jettySize=auto;dashed=1;html=1;fontSize=10;" parent="1" source="DjoerSDfQ0twz3AZHhsx-60" target="DjoerSDfQ0twz3AZHhsx-6" edge="1">
          <mxGeometry relative="1" as="geometry">
            <mxPoint x="394" y="691" as="sourcePoint" />
            <mxPoint x="373" y="660" as="targetPoint" />
          </mxGeometry>
        </mxCell>
        <mxCell id="DjoerSDfQ0twz3AZHhsx-62" value="&amp;lt;&amp;lt;extends&amp;gt;&amp;gt;" style="edgeLabel;align=center;verticalAlign=middle;resizable=0;points=[];html=1;fontSize=10;" parent="DjoerSDfQ0twz3AZHhsx-61" vertex="1" connectable="0">
          <mxGeometry x="0.1615" relative="1" as="geometry">
            <mxPoint x="-15" y="3" as="offset" />
          </mxGeometry>
        </mxCell>
        <mxCell id="DjoerSDfQ0twz3AZHhsx-63" value="Реєстрація працівника" style="ellipse;whiteSpace=wrap;html=1;fontSize=10;" parent="1" vertex="1">
          <mxGeometry x="150" y="440" width="120" height="30" as="geometry" />
        </mxCell>
        <mxCell id="DjoerSDfQ0twz3AZHhsx-64" value="" style="rounded=0;orthogonalLoop=1;jettySize=auto;dashed=1;html=1;fontSize=10;" parent="1" source="DjoerSDfQ0twz3AZHhsx-8" target="DjoerSDfQ0twz3AZHhsx-12" edge="1">
          <mxGeometry relative="1" as="geometry">
            <mxPoint x="360" y="425" as="sourcePoint" />
            <mxPoint x="360" y="460" as="targetPoint" />
          </mxGeometry>
        </mxCell>
        <mxCell id="DjoerSDfQ0twz3AZHhsx-65" value="&amp;lt;&amp;lt;extends&amp;gt;&amp;gt;" style="edgeLabel;align=center;verticalAlign=middle;resizable=0;points=[];html=1;fontSize=10;" parent="DjoerSDfQ0twz3AZHhsx-64" vertex="1" connectable="0">
          <mxGeometry x="0.1615" relative="1" as="geometry">
            <mxPoint x="-12" as="offset" />
          </mxGeometry>
        </mxCell>
        <mxCell id="DjoerSDfQ0twz3AZHhsx-66" value="" style="rounded=0;orthogonalLoop=1;jettySize=auto;dashed=1;html=1;fontSize=10;" parent="1" source="DjoerSDfQ0twz3AZHhsx-63" target="DjoerSDfQ0twz3AZHhsx-8" edge="1">
          <mxGeometry relative="1" as="geometry">
            <mxPoint x="210" y="485" as="sourcePoint" />
            <mxPoint x="290" y="485" as="targetPoint" />
          </mxGeometry>
        </mxCell>
        <mxCell id="DjoerSDfQ0twz3AZHhsx-67" value="&amp;lt;&amp;lt;extends&amp;gt;&amp;gt;" style="edgeLabel;align=center;verticalAlign=middle;resizable=0;points=[];html=1;fontSize=10;" parent="DjoerSDfQ0twz3AZHhsx-66" vertex="1" connectable="0">
          <mxGeometry x="0.1615" relative="1" as="geometry">
            <mxPoint x="3" y="-8" as="offset" />
          </mxGeometry>
        </mxCell>
        <mxCell id="DjoerSDfQ0twz3AZHhsx-68" value="" style="rounded=0;orthogonalLoop=1;jettySize=auto;dashed=1;html=1;fontSize=10;" parent="1" source="DjoerSDfQ0twz3AZHhsx-29" target="DjoerSDfQ0twz3AZHhsx-47" edge="1">
          <mxGeometry relative="1" as="geometry">
            <mxPoint x="304" y="760" as="sourcePoint" />
            <mxPoint x="297" y="870" as="targetPoint" />
          </mxGeometry>
        </mxCell>
        <mxCell id="DjoerSDfQ0twz3AZHhsx-69" value="&amp;lt;&amp;lt;includes&amp;gt;&amp;gt;" style="edgeLabel;align=center;verticalAlign=middle;resizable=0;points=[];html=1;fontSize=10;" parent="DjoerSDfQ0twz3AZHhsx-68" vertex="1" connectable="0">
          <mxGeometry x="0.1615" relative="1" as="geometry">
            <mxPoint x="-6" as="offset" />
          </mxGeometry>
        </mxCell>
        <mxCell id="DjoerSDfQ0twz3AZHhsx-70" value="Видалення замовлення" style="ellipse;whiteSpace=wrap;html=1;fontSize=10;" parent="1" vertex="1">
          <mxGeometry x="290" y="620" width="75" height="30" as="geometry" />
        </mxCell>
        <mxCell id="DjoerSDfQ0twz3AZHhsx-71" value="" style="rounded=0;orthogonalLoop=1;jettySize=auto;dashed=1;html=1;fontSize=10;" parent="1" source="DjoerSDfQ0twz3AZHhsx-70" target="DjoerSDfQ0twz3AZHhsx-26" edge="1">
          <mxGeometry relative="1" as="geometry">
            <mxPoint x="216" y="710" as="sourcePoint" />
            <mxPoint x="284" y="870" as="targetPoint" />
          </mxGeometry>
        </mxCell>
        <mxCell id="DjoerSDfQ0twz3AZHhsx-72" value="&amp;lt;&amp;lt;extends&amp;gt;&amp;gt;" style="edgeLabel;align=center;verticalAlign=middle;resizable=0;points=[];html=1;fontSize=10;" parent="DjoerSDfQ0twz3AZHhsx-71" vertex="1" connectable="0">
          <mxGeometry x="0.1615" relative="1" as="geometry">
            <mxPoint x="-8" y="-4" as="offset" />
          </mxGeometry>
        </mxCell>
        <mxCell id="DjoerSDfQ0twz3AZHhsx-73" value="" style="rounded=0;orthogonalLoop=1;jettySize=auto;dashed=1;html=1;fontSize=10;" parent="1" source="DjoerSDfQ0twz3AZHhsx-48" target="DjoerSDfQ0twz3AZHhsx-47" edge="1">
          <mxGeometry relative="1" as="geometry">
            <mxPoint x="490" y="793" as="sourcePoint" />
            <mxPoint x="331" y="876" as="targetPoint" />
          </mxGeometry>
        </mxCell>
        <mxCell id="DjoerSDfQ0twz3AZHhsx-74" value="&amp;lt;&amp;lt;includes&amp;gt;&amp;gt;" style="edgeLabel;align=center;verticalAlign=middle;resizable=0;points=[];html=1;fontSize=10;" parent="DjoerSDfQ0twz3AZHhsx-73" vertex="1" connectable="0">
          <mxGeometry x="0.1615" relative="1" as="geometry">
            <mxPoint x="-5" y="-2" as="offset" />
          </mxGeometry>
        </mxCell>
      </root>
    </mxGraphModel>
  </diagram>
  <diagram id="s1ELXjI21p9bncQkVTcC" name="Component">
    <mxGraphModel dx="1418" dy="820" grid="1" gridSize="10" guides="1" tooltips="1" connect="1" arrows="1" fold="1" page="1" pageScale="1" pageWidth="850" pageHeight="1100" math="0" shadow="0">
      <root>
        <mxCell id="0" />
        <mxCell id="1" parent="0" />
        <mxCell id="IUiZCe1x3tNY3_lS6yql-1" value="&lt;p style=&quot;margin:0px;margin-top:6px;text-align:center;&quot;&gt;&lt;b&gt;API&lt;/b&gt;&lt;/p&gt;&lt;hr&gt;&lt;p style=&quot;margin:0px;margin-left:8px;&quot;&gt;&lt;br&gt;&lt;/p&gt;" style="align=left;overflow=fill;html=1;dropTarget=0;whiteSpace=wrap;" vertex="1" parent="1">
          <mxGeometry x="50" y="260" width="180" height="230" as="geometry" />
        </mxCell>
        <mxCell id="IUiZCe1x3tNY3_lS6yql-2" value="" style="shape=component;jettyWidth=8;jettyHeight=4;" vertex="1" parent="IUiZCe1x3tNY3_lS6yql-1">
          <mxGeometry x="1" width="20" height="20" relative="1" as="geometry">
            <mxPoint x="-24" y="4" as="offset" />
          </mxGeometry>
        </mxCell>
        <mxCell id="IUiZCe1x3tNY3_lS6yql-3" value="AccountController" style="html=1;dropTarget=0;whiteSpace=wrap;" vertex="1" parent="1">
          <mxGeometry x="60" y="450" width="160" height="30" as="geometry" />
        </mxCell>
        <mxCell id="IUiZCe1x3tNY3_lS6yql-4" value="" style="shape=module;jettyWidth=8;jettyHeight=4;" vertex="1" parent="IUiZCe1x3tNY3_lS6yql-3">
          <mxGeometry x="1" width="20" height="20" relative="1" as="geometry">
            <mxPoint x="-27" y="7" as="offset" />
          </mxGeometry>
        </mxCell>
        <mxCell id="IUiZCe1x3tNY3_lS6yql-5" value="CateringController" style="html=1;dropTarget=0;whiteSpace=wrap;" vertex="1" parent="1">
          <mxGeometry x="60" y="410" width="160" height="30" as="geometry" />
        </mxCell>
        <mxCell id="IUiZCe1x3tNY3_lS6yql-6" value="" style="shape=module;jettyWidth=8;jettyHeight=4;" vertex="1" parent="IUiZCe1x3tNY3_lS6yql-5">
          <mxGeometry x="1" width="20" height="20" relative="1" as="geometry">
            <mxPoint x="-27" y="7" as="offset" />
          </mxGeometry>
        </mxCell>
        <mxCell id="IUiZCe1x3tNY3_lS6yql-7" value="DishController" style="html=1;dropTarget=0;whiteSpace=wrap;" vertex="1" parent="1">
          <mxGeometry x="60" y="370" width="160" height="30" as="geometry" />
        </mxCell>
        <mxCell id="IUiZCe1x3tNY3_lS6yql-8" value="" style="shape=module;jettyWidth=8;jettyHeight=4;" vertex="1" parent="IUiZCe1x3tNY3_lS6yql-7">
          <mxGeometry x="1" width="20" height="20" relative="1" as="geometry">
            <mxPoint x="-27" y="7" as="offset" />
          </mxGeometry>
        </mxCell>
        <mxCell id="IUiZCe1x3tNY3_lS6yql-9" value="OrderController" style="html=1;dropTarget=0;whiteSpace=wrap;" vertex="1" parent="1">
          <mxGeometry x="60" y="330" width="160" height="30" as="geometry" />
        </mxCell>
        <mxCell id="IUiZCe1x3tNY3_lS6yql-10" value="" style="shape=module;jettyWidth=8;jettyHeight=4;" vertex="1" parent="IUiZCe1x3tNY3_lS6yql-9">
          <mxGeometry x="1" width="20" height="20" relative="1" as="geometry">
            <mxPoint x="-27" y="7" as="offset" />
          </mxGeometry>
        </mxCell>
        <mxCell id="IUiZCe1x3tNY3_lS6yql-11" value="TerminalController" style="html=1;dropTarget=0;whiteSpace=wrap;" vertex="1" parent="1">
          <mxGeometry x="60" y="290" width="160" height="30" as="geometry" />
        </mxCell>
        <mxCell id="IUiZCe1x3tNY3_lS6yql-12" value="" style="shape=module;jettyWidth=8;jettyHeight=4;" vertex="1" parent="IUiZCe1x3tNY3_lS6yql-11">
          <mxGeometry x="1" width="20" height="20" relative="1" as="geometry">
            <mxPoint x="-27" y="7" as="offset" />
          </mxGeometry>
        </mxCell>
        <mxCell id="IUiZCe1x3tNY3_lS6yql-13" value="&lt;p style=&quot;margin:0px;margin-top:6px;text-align:center;&quot;&gt;&lt;b&gt;DataAccess&lt;/b&gt;&lt;/p&gt;&lt;hr&gt;&lt;p style=&quot;margin:0px;margin-left:8px;&quot;&gt;&lt;br&gt;&lt;/p&gt;" style="align=left;overflow=fill;html=1;dropTarget=0;whiteSpace=wrap;" vertex="1" parent="1">
          <mxGeometry x="572" y="340" width="180" height="70" as="geometry" />
        </mxCell>
        <mxCell id="IUiZCe1x3tNY3_lS6yql-14" value="" style="shape=component;jettyWidth=8;jettyHeight=4;" vertex="1" parent="IUiZCe1x3tNY3_lS6yql-13">
          <mxGeometry x="1" width="20" height="20" relative="1" as="geometry">
            <mxPoint x="-24" y="4" as="offset" />
          </mxGeometry>
        </mxCell>
        <mxCell id="IUiZCe1x3tNY3_lS6yql-15" value="ApplicationContext" style="html=1;dropTarget=0;whiteSpace=wrap;" vertex="1" parent="1">
          <mxGeometry x="582" y="370" width="160" height="30" as="geometry" />
        </mxCell>
        <mxCell id="IUiZCe1x3tNY3_lS6yql-16" value="" style="shape=module;jettyWidth=8;jettyHeight=4;" vertex="1" parent="IUiZCe1x3tNY3_lS6yql-15">
          <mxGeometry x="1" width="20" height="20" relative="1" as="geometry">
            <mxPoint x="-27" y="7" as="offset" />
          </mxGeometry>
        </mxCell>
        <mxCell id="IUiZCe1x3tNY3_lS6yql-17" value="&lt;p style=&quot;margin:0px;margin-top:6px;text-align:center;&quot;&gt;&lt;b&gt;Services&lt;/b&gt;&lt;/p&gt;&lt;hr&gt;&lt;p style=&quot;margin:0px;margin-left:8px;&quot;&gt;&lt;br&gt;&lt;/p&gt;" style="align=left;overflow=fill;html=1;dropTarget=0;whiteSpace=wrap;" vertex="1" parent="1">
          <mxGeometry x="330" y="260" width="180" height="270" as="geometry" />
        </mxCell>
        <mxCell id="IUiZCe1x3tNY3_lS6yql-18" value="" style="shape=component;jettyWidth=8;jettyHeight=4;" vertex="1" parent="IUiZCe1x3tNY3_lS6yql-17">
          <mxGeometry x="1" width="20" height="20" relative="1" as="geometry">
            <mxPoint x="-24" y="4" as="offset" />
          </mxGeometry>
        </mxCell>
        <mxCell id="IUiZCe1x3tNY3_lS6yql-19" style="edgeStyle=orthogonalEdgeStyle;rounded=0;orthogonalLoop=1;jettySize=auto;html=1;endArrow=none;endFill=0;elbow=vertical;exitX=1;exitY=0.5;exitDx=0;exitDy=0;" edge="1" parent="1" source="IUiZCe1x3tNY3_lS6yql-20">
          <mxGeometry relative="1" as="geometry">
            <mxPoint x="530" y="290" as="sourcePoint" />
            <mxPoint x="660" y="465" as="targetPoint" />
          </mxGeometry>
        </mxCell>
        <mxCell id="IUiZCe1x3tNY3_lS6yql-20" value="UserService" style="html=1;dropTarget=0;whiteSpace=wrap;" vertex="1" parent="1">
          <mxGeometry x="339" y="450" width="160" height="30" as="geometry" />
        </mxCell>
        <mxCell id="IUiZCe1x3tNY3_lS6yql-21" value="" style="shape=module;jettyWidth=8;jettyHeight=4;" vertex="1" parent="IUiZCe1x3tNY3_lS6yql-20">
          <mxGeometry x="1" width="20" height="20" relative="1" as="geometry">
            <mxPoint x="-27" y="7" as="offset" />
          </mxGeometry>
        </mxCell>
        <mxCell id="IUiZCe1x3tNY3_lS6yql-22" value="CateringService" style="html=1;dropTarget=0;whiteSpace=wrap;" vertex="1" parent="1">
          <mxGeometry x="339" y="410" width="160" height="30" as="geometry" />
        </mxCell>
        <mxCell id="IUiZCe1x3tNY3_lS6yql-23" value="" style="shape=module;jettyWidth=8;jettyHeight=4;" vertex="1" parent="IUiZCe1x3tNY3_lS6yql-22">
          <mxGeometry x="1" width="20" height="20" relative="1" as="geometry">
            <mxPoint x="-27" y="7" as="offset" />
          </mxGeometry>
        </mxCell>
        <mxCell id="IUiZCe1x3tNY3_lS6yql-24" value="DishService" style="html=1;dropTarget=0;whiteSpace=wrap;" vertex="1" parent="1">
          <mxGeometry x="339" y="370" width="160" height="30" as="geometry" />
        </mxCell>
        <mxCell id="IUiZCe1x3tNY3_lS6yql-25" value="" style="shape=module;jettyWidth=8;jettyHeight=4;" vertex="1" parent="IUiZCe1x3tNY3_lS6yql-24">
          <mxGeometry x="1" width="20" height="20" relative="1" as="geometry">
            <mxPoint x="-27" y="7" as="offset" />
          </mxGeometry>
        </mxCell>
        <mxCell id="IUiZCe1x3tNY3_lS6yql-26" value="OrderService" style="html=1;dropTarget=0;whiteSpace=wrap;" vertex="1" parent="1">
          <mxGeometry x="340" y="290" width="160" height="30" as="geometry" />
        </mxCell>
        <mxCell id="IUiZCe1x3tNY3_lS6yql-27" value="" style="shape=module;jettyWidth=8;jettyHeight=4;" vertex="1" parent="IUiZCe1x3tNY3_lS6yql-26">
          <mxGeometry x="1" width="20" height="20" relative="1" as="geometry">
            <mxPoint x="-27" y="7" as="offset" />
          </mxGeometry>
        </mxCell>
        <mxCell id="IUiZCe1x3tNY3_lS6yql-28" value="TerminalService" style="html=1;dropTarget=0;whiteSpace=wrap;" vertex="1" parent="1">
          <mxGeometry x="339" y="330" width="160" height="30" as="geometry" />
        </mxCell>
        <mxCell id="IUiZCe1x3tNY3_lS6yql-29" value="" style="shape=module;jettyWidth=8;jettyHeight=4;" vertex="1" parent="IUiZCe1x3tNY3_lS6yql-28">
          <mxGeometry x="1" width="20" height="20" relative="1" as="geometry">
            <mxPoint x="-27" y="7" as="offset" />
          </mxGeometry>
        </mxCell>
        <mxCell id="IUiZCe1x3tNY3_lS6yql-30" value="EmailService" style="html=1;dropTarget=0;whiteSpace=wrap;" vertex="1" parent="1">
          <mxGeometry x="339" y="490" width="160" height="30" as="geometry" />
        </mxCell>
        <mxCell id="IUiZCe1x3tNY3_lS6yql-31" value="" style="shape=module;jettyWidth=8;jettyHeight=4;" vertex="1" parent="IUiZCe1x3tNY3_lS6yql-30">
          <mxGeometry x="1" width="20" height="20" relative="1" as="geometry">
            <mxPoint x="-27" y="7" as="offset" />
          </mxGeometry>
        </mxCell>
        <mxCell id="IUiZCe1x3tNY3_lS6yql-32" value="" style="rounded=0;orthogonalLoop=1;jettySize=auto;html=1;endArrow=halfCircle;endFill=0;sketch=0;sourcePerimeterSpacing=0;targetPerimeterSpacing=0;exitX=1;exitY=0.5;exitDx=0;exitDy=0;edgeStyle=elbowEdgeStyle;" edge="1" parent="1" source="IUiZCe1x3tNY3_lS6yql-20" target="IUiZCe1x3tNY3_lS6yql-34">
          <mxGeometry relative="1" as="geometry">
            <mxPoint x="413" y="145" as="sourcePoint" />
            <Array as="points">
              <mxPoint x="520" y="430" />
            </Array>
          </mxGeometry>
        </mxCell>
        <mxCell id="IUiZCe1x3tNY3_lS6yql-33" value="" style="rounded=0;orthogonalLoop=1;jettySize=auto;html=1;endArrow=none;endFill=0;endSize=6;strokeWidth=1;sketch=0;exitX=0;exitY=0.5;exitDx=0;exitDy=0;" edge="1" parent="1" source="IUiZCe1x3tNY3_lS6yql-15" target="IUiZCe1x3tNY3_lS6yql-34">
          <mxGeometry relative="1" as="geometry">
            <mxPoint x="582" y="305" as="sourcePoint" />
            <mxPoint x="602" y="290" as="targetPoint" />
          </mxGeometry>
        </mxCell>
        <mxCell id="IUiZCe1x3tNY3_lS6yql-34" value="" style="ellipse;whiteSpace=wrap;html=1;align=center;aspect=fixed;resizable=0;points=[];outlineConnect=0;sketch=0;" vertex="1" parent="1">
          <mxGeometry x="542" y="380" width="10" height="10" as="geometry" />
        </mxCell>
        <mxCell id="IUiZCe1x3tNY3_lS6yql-35" value="" style="rounded=0;orthogonalLoop=1;jettySize=auto;html=1;endArrow=halfCircle;endFill=0;sketch=0;sourcePerimeterSpacing=0;targetPerimeterSpacing=0;exitX=1;exitY=0.5;exitDx=0;exitDy=0;edgeStyle=elbowEdgeStyle;" edge="1" parent="1" source="IUiZCe1x3tNY3_lS6yql-22" target="IUiZCe1x3tNY3_lS6yql-34">
          <mxGeometry relative="1" as="geometry">
            <mxPoint x="490" y="315" as="sourcePoint" />
            <mxPoint x="550" y="315" as="targetPoint" />
            <Array as="points">
              <mxPoint x="520" y="410" />
            </Array>
          </mxGeometry>
        </mxCell>
        <mxCell id="IUiZCe1x3tNY3_lS6yql-36" value="" style="rounded=0;orthogonalLoop=1;jettySize=auto;html=1;endArrow=halfCircle;endFill=0;sketch=0;sourcePerimeterSpacing=0;targetPerimeterSpacing=0;exitX=1;exitY=0.5;exitDx=0;exitDy=0;edgeStyle=elbowEdgeStyle;" edge="1" parent="1" source="IUiZCe1x3tNY3_lS6yql-24" target="IUiZCe1x3tNY3_lS6yql-34">
          <mxGeometry relative="1" as="geometry">
            <mxPoint x="490" y="355" as="sourcePoint" />
            <mxPoint x="551" y="318" as="targetPoint" />
          </mxGeometry>
        </mxCell>
        <mxCell id="IUiZCe1x3tNY3_lS6yql-37" value="" style="rounded=0;orthogonalLoop=1;jettySize=auto;html=1;endArrow=halfCircle;endFill=0;sketch=0;sourcePerimeterSpacing=0;targetPerimeterSpacing=0;exitX=1;exitY=0.5;exitDx=0;exitDy=0;edgeStyle=elbowEdgeStyle;" edge="1" parent="1" source="IUiZCe1x3tNY3_lS6yql-26" target="IUiZCe1x3tNY3_lS6yql-34">
          <mxGeometry relative="1" as="geometry">
            <mxPoint x="500" y="365" as="sourcePoint" />
            <mxPoint x="561" y="328" as="targetPoint" />
            <Array as="points">
              <mxPoint x="520" y="360" />
            </Array>
          </mxGeometry>
        </mxCell>
        <mxCell id="IUiZCe1x3tNY3_lS6yql-38" value="" style="rounded=0;orthogonalLoop=1;jettySize=auto;html=1;endArrow=halfCircle;endFill=0;sketch=0;sourcePerimeterSpacing=0;targetPerimeterSpacing=0;exitX=1;exitY=0.5;exitDx=0;exitDy=0;edgeStyle=elbowEdgeStyle;" edge="1" parent="1" source="IUiZCe1x3tNY3_lS6yql-28" target="IUiZCe1x3tNY3_lS6yql-34">
          <mxGeometry relative="1" as="geometry">
            <mxPoint x="510" y="375" as="sourcePoint" />
            <mxPoint x="571" y="338" as="targetPoint" />
            <Array as="points">
              <mxPoint x="520" y="370" />
            </Array>
          </mxGeometry>
        </mxCell>
        <mxCell id="IUiZCe1x3tNY3_lS6yql-39" value="" style="rounded=0;orthogonalLoop=1;jettySize=auto;html=1;endArrow=halfCircle;endFill=0;sketch=0;sourcePerimeterSpacing=0;targetPerimeterSpacing=0;edgeStyle=elbowEdgeStyle;" edge="1" parent="1" source="IUiZCe1x3tNY3_lS6yql-15">
          <mxGeometry relative="1" as="geometry">
            <mxPoint x="492" y="315" as="sourcePoint" />
            <mxPoint x="660" y="490" as="targetPoint" />
          </mxGeometry>
        </mxCell>
        <mxCell id="IUiZCe1x3tNY3_lS6yql-40" value="Identity" style="edgeLabel;html=1;align=center;verticalAlign=middle;resizable=0;points=[];" vertex="1" connectable="0" parent="IUiZCe1x3tNY3_lS6yql-39">
          <mxGeometry x="0.2492" relative="1" as="geometry">
            <mxPoint y="54" as="offset" />
          </mxGeometry>
        </mxCell>
        <mxCell id="IUiZCe1x3tNY3_lS6yql-41" value="Context" style="edgeLabel;html=1;align=center;verticalAlign=middle;resizable=0;points=[];labelBackgroundColor=none;" vertex="1" connectable="0" parent="1">
          <mxGeometry x="546.9990476190475" y="400" as="geometry" />
        </mxCell>
        <mxCell id="IUiZCe1x3tNY3_lS6yql-42" value="" style="rounded=0;orthogonalLoop=1;jettySize=auto;html=1;endArrow=halfCircle;endFill=0;sketch=0;sourcePerimeterSpacing=0;targetPerimeterSpacing=0;exitX=1;exitY=0.5;exitDx=0;exitDy=0;" edge="1" parent="1" source="IUiZCe1x3tNY3_lS6yql-3" target="IUiZCe1x3tNY3_lS6yql-44">
          <mxGeometry relative="1" as="geometry">
            <mxPoint x="258" y="308" as="sourcePoint" />
          </mxGeometry>
        </mxCell>
        <mxCell id="IUiZCe1x3tNY3_lS6yql-43" value="" style="rounded=0;orthogonalLoop=1;jettySize=auto;html=1;endArrow=none;endFill=0;endSize=6;strokeWidth=1;sketch=0;exitX=0;exitY=0.5;exitDx=0;exitDy=0;" edge="1" parent="1" source="IUiZCe1x3tNY3_lS6yql-20" target="IUiZCe1x3tNY3_lS6yql-44">
          <mxGeometry relative="1" as="geometry">
            <mxPoint x="280" y="308" as="sourcePoint" />
          </mxGeometry>
        </mxCell>
        <mxCell id="IUiZCe1x3tNY3_lS6yql-44" value="" style="ellipse;whiteSpace=wrap;html=1;align=center;aspect=fixed;resizable=0;points=[];outlineConnect=0;sketch=0;" vertex="1" parent="1">
          <mxGeometry x="273" y="460" width="10" height="10" as="geometry" />
        </mxCell>
        <mxCell id="IUiZCe1x3tNY3_lS6yql-45" value="" style="rounded=0;orthogonalLoop=1;jettySize=auto;html=1;endArrow=halfCircle;endFill=0;sketch=0;sourcePerimeterSpacing=0;targetPerimeterSpacing=0;edgeStyle=elbowEdgeStyle;" edge="1" parent="1" source="IUiZCe1x3tNY3_lS6yql-15">
          <mxGeometry relative="1" as="geometry">
            <mxPoint x="752" y="395" as="sourcePoint" />
            <mxPoint x="715" y="490" as="targetPoint" />
          </mxGeometry>
        </mxCell>
        <mxCell id="IUiZCe1x3tNY3_lS6yql-46" value="DB" style="edgeLabel;html=1;align=center;verticalAlign=middle;resizable=0;points=[];" vertex="1" connectable="0" parent="IUiZCe1x3tNY3_lS6yql-45">
          <mxGeometry x="0.2492" relative="1" as="geometry">
            <mxPoint y="54" as="offset" />
          </mxGeometry>
        </mxCell>
        <mxCell id="IUiZCe1x3tNY3_lS6yql-47" value="" style="rounded=0;orthogonalLoop=1;jettySize=auto;html=1;endArrow=halfCircle;endFill=0;sketch=0;sourcePerimeterSpacing=0;targetPerimeterSpacing=0;exitX=1;exitY=0.5;exitDx=0;exitDy=0;" edge="1" parent="1" source="IUiZCe1x3tNY3_lS6yql-5" target="IUiZCe1x3tNY3_lS6yql-49">
          <mxGeometry relative="1" as="geometry">
            <mxPoint x="228" y="315" as="sourcePoint" />
          </mxGeometry>
        </mxCell>
        <mxCell id="IUiZCe1x3tNY3_lS6yql-48" value="" style="rounded=0;orthogonalLoop=1;jettySize=auto;html=1;endArrow=none;endFill=0;endSize=6;strokeWidth=1;sketch=0;exitX=0;exitY=0.5;exitDx=0;exitDy=0;" edge="1" parent="1" source="IUiZCe1x3tNY3_lS6yql-22" target="IUiZCe1x3tNY3_lS6yql-49">
          <mxGeometry relative="1" as="geometry">
            <mxPoint x="330" y="315" as="sourcePoint" />
            <mxPoint x="290" y="330" as="targetPoint" />
          </mxGeometry>
        </mxCell>
        <mxCell id="IUiZCe1x3tNY3_lS6yql-49" value="" style="ellipse;whiteSpace=wrap;html=1;align=center;aspect=fixed;resizable=0;points=[];outlineConnect=0;sketch=0;" vertex="1" parent="1">
          <mxGeometry x="273" y="420" width="10" height="10" as="geometry" />
        </mxCell>
        <mxCell id="IUiZCe1x3tNY3_lS6yql-50" value="" style="rounded=0;orthogonalLoop=1;jettySize=auto;html=1;endArrow=halfCircle;endFill=0;sketch=0;sourcePerimeterSpacing=0;targetPerimeterSpacing=0;exitX=1;exitY=0.5;exitDx=0;exitDy=0;" edge="1" parent="1" source="IUiZCe1x3tNY3_lS6yql-7" target="IUiZCe1x3tNY3_lS6yql-52">
          <mxGeometry relative="1" as="geometry">
            <mxPoint x="208" y="450" as="sourcePoint" />
          </mxGeometry>
        </mxCell>
        <mxCell id="IUiZCe1x3tNY3_lS6yql-51" value="" style="rounded=0;orthogonalLoop=1;jettySize=auto;html=1;endArrow=none;endFill=0;endSize=6;strokeWidth=1;sketch=0;exitX=0;exitY=0.5;exitDx=0;exitDy=0;" edge="1" parent="1" source="IUiZCe1x3tNY3_lS6yql-24" target="IUiZCe1x3tNY3_lS6yql-52">
          <mxGeometry relative="1" as="geometry">
            <mxPoint x="310" y="450" as="sourcePoint" />
          </mxGeometry>
        </mxCell>
        <mxCell id="IUiZCe1x3tNY3_lS6yql-52" value="" style="ellipse;whiteSpace=wrap;html=1;align=center;aspect=fixed;resizable=0;points=[];outlineConnect=0;sketch=0;" vertex="1" parent="1">
          <mxGeometry x="273" y="380" width="10" height="10" as="geometry" />
        </mxCell>
        <mxCell id="IUiZCe1x3tNY3_lS6yql-53" value="" style="rounded=0;orthogonalLoop=1;jettySize=auto;html=1;endArrow=halfCircle;endFill=0;sketch=0;sourcePerimeterSpacing=0;targetPerimeterSpacing=0;exitX=1;exitY=0.25;exitDx=0;exitDy=0;" edge="1" parent="1" source="IUiZCe1x3tNY3_lS6yql-26">
          <mxGeometry relative="1" as="geometry">
            <mxPoint x="525" y="480" as="sourcePoint" />
            <mxPoint x="610" y="297" as="targetPoint" />
          </mxGeometry>
        </mxCell>
        <mxCell id="IUiZCe1x3tNY3_lS6yql-54" value="MQTT Client" style="edgeLabel;html=1;align=center;verticalAlign=middle;resizable=0;points=[];" vertex="1" connectable="0" parent="IUiZCe1x3tNY3_lS6yql-53">
          <mxGeometry x="0.6209" y="1" relative="1" as="geometry">
            <mxPoint x="21" y="-16" as="offset" />
          </mxGeometry>
        </mxCell>
        <mxCell id="IUiZCe1x3tNY3_lS6yql-55" value="" style="rounded=0;orthogonalLoop=1;jettySize=auto;html=1;endArrow=halfCircle;endFill=0;sketch=0;sourcePerimeterSpacing=0;targetPerimeterSpacing=0;exitX=1;exitY=0.5;exitDx=0;exitDy=0;" edge="1" parent="1" source="IUiZCe1x3tNY3_lS6yql-9" target="IUiZCe1x3tNY3_lS6yql-57">
          <mxGeometry relative="1" as="geometry">
            <mxPoint x="218" y="425" as="sourcePoint" />
          </mxGeometry>
        </mxCell>
        <mxCell id="IUiZCe1x3tNY3_lS6yql-56" value="" style="rounded=0;orthogonalLoop=1;jettySize=auto;html=1;endArrow=none;endFill=0;endSize=6;strokeWidth=1;sketch=0;exitX=0;exitY=0.5;exitDx=0;exitDy=0;" edge="1" parent="1" source="IUiZCe1x3tNY3_lS6yql-28" target="IUiZCe1x3tNY3_lS6yql-57">
          <mxGeometry relative="1" as="geometry">
            <mxPoint x="320" y="425" as="sourcePoint" />
          </mxGeometry>
        </mxCell>
        <mxCell id="IUiZCe1x3tNY3_lS6yql-57" value="" style="ellipse;whiteSpace=wrap;html=1;align=center;aspect=fixed;resizable=0;points=[];outlineConnect=0;sketch=0;" vertex="1" parent="1">
          <mxGeometry x="273" y="340" width="10" height="10" as="geometry" />
        </mxCell>
        <mxCell id="IUiZCe1x3tNY3_lS6yql-58" value="" style="rounded=0;orthogonalLoop=1;jettySize=auto;html=1;endArrow=halfCircle;endFill=0;sketch=0;sourcePerimeterSpacing=0;targetPerimeterSpacing=0;exitX=1;exitY=0.5;exitDx=0;exitDy=0;" edge="1" parent="1" source="IUiZCe1x3tNY3_lS6yql-11" target="IUiZCe1x3tNY3_lS6yql-60">
          <mxGeometry relative="1" as="geometry">
            <mxPoint x="218" y="465" as="sourcePoint" />
          </mxGeometry>
        </mxCell>
        <mxCell id="IUiZCe1x3tNY3_lS6yql-59" value="" style="rounded=0;orthogonalLoop=1;jettySize=auto;html=1;endArrow=none;endFill=0;endSize=6;strokeWidth=1;sketch=0;exitX=0;exitY=0.5;exitDx=0;exitDy=0;" edge="1" parent="1" source="IUiZCe1x3tNY3_lS6yql-26" target="IUiZCe1x3tNY3_lS6yql-60">
          <mxGeometry relative="1" as="geometry">
            <mxPoint x="320" y="465" as="sourcePoint" />
            <mxPoint x="290" y="450" as="targetPoint" />
          </mxGeometry>
        </mxCell>
        <mxCell id="IUiZCe1x3tNY3_lS6yql-60" value="" style="ellipse;whiteSpace=wrap;html=1;align=center;aspect=fixed;resizable=0;points=[];outlineConnect=0;sketch=0;" vertex="1" parent="1">
          <mxGeometry x="273" y="300" width="10" height="10" as="geometry" />
        </mxCell>
        <mxCell id="IUiZCe1x3tNY3_lS6yql-61" value="" style="rounded=0;orthogonalLoop=1;jettySize=auto;html=1;endArrow=halfCircle;endFill=0;sketch=0;sourcePerimeterSpacing=0;targetPerimeterSpacing=0;exitX=1;exitY=0.75;exitDx=0;exitDy=0;edgeStyle=elbowEdgeStyle;" edge="1" parent="1" source="IUiZCe1x3tNY3_lS6yql-5" target="IUiZCe1x3tNY3_lS6yql-44">
          <mxGeometry relative="1" as="geometry">
            <mxPoint x="228" y="355" as="sourcePoint" />
            <mxPoint x="283" y="355" as="targetPoint" />
            <Array as="points">
              <mxPoint x="240" y="450" />
            </Array>
          </mxGeometry>
        </mxCell>
        <mxCell id="IUiZCe1x3tNY3_lS6yql-62" value="IUserService" style="edgeLabel;html=1;align=center;verticalAlign=middle;resizable=0;points=[];labelBackgroundColor=none;" vertex="1" connectable="0" parent="IUiZCe1x3tNY3_lS6yql-61">
          <mxGeometry x="0.7083" y="-1" relative="1" as="geometry">
            <mxPoint x="23" y="14" as="offset" />
          </mxGeometry>
        </mxCell>
        <mxCell id="IUiZCe1x3tNY3_lS6yql-63" value="ICateringService" style="edgeLabel;html=1;align=center;verticalAlign=middle;resizable=0;points=[];labelBackgroundColor=none;" vertex="1" connectable="0" parent="1">
          <mxGeometry x="283.00264367816095" y="439.99999999999994" as="geometry" />
        </mxCell>
        <mxCell id="IUiZCe1x3tNY3_lS6yql-64" value="IDishService" style="edgeLabel;html=1;align=center;verticalAlign=middle;resizable=0;points=[];labelBackgroundColor=none;" vertex="1" connectable="0" parent="1">
          <mxGeometry x="278.00264367816095" y="399.99999999999994" as="geometry" />
        </mxCell>
        <mxCell id="IUiZCe1x3tNY3_lS6yql-65" value="ITerminalService" style="edgeLabel;html=1;align=center;verticalAlign=middle;resizable=0;points=[];labelBackgroundColor=none;" vertex="1" connectable="0" parent="1">
          <mxGeometry x="283.00264367816095" y="319.99999999999994" as="geometry" />
        </mxCell>
        <mxCell id="IUiZCe1x3tNY3_lS6yql-66" value="IOrderService" style="edgeLabel;html=1;align=center;verticalAlign=middle;resizable=0;points=[];labelBackgroundColor=none;" vertex="1" connectable="0" parent="1">
          <mxGeometry x="283.00264367816095" y="359.99999999999994" as="geometry" />
        </mxCell>
        <mxCell id="IUiZCe1x3tNY3_lS6yql-67" value="" style="ellipse;whiteSpace=wrap;html=1;align=center;aspect=fixed;resizable=0;points=[];outlineConnect=0;sketch=0;" vertex="1" parent="1">
          <mxGeometry x="525" y="500" width="10" height="10" as="geometry" />
        </mxCell>
        <mxCell id="IUiZCe1x3tNY3_lS6yql-68" value="" style="rounded=0;orthogonalLoop=1;jettySize=auto;html=1;endArrow=halfCircle;endFill=0;sketch=0;sourcePerimeterSpacing=0;targetPerimeterSpacing=0;exitX=1;exitY=0.75;exitDx=0;exitDy=0;edgeStyle=orthogonalEdgeStyle;elbow=vertical;jumpStyle=arc;" edge="1" parent="1" source="IUiZCe1x3tNY3_lS6yql-20" target="IUiZCe1x3tNY3_lS6yql-67">
          <mxGeometry relative="1" as="geometry">
            <mxPoint x="496" y="485" as="sourcePoint" />
            <mxPoint x="604" y="485" as="targetPoint" />
          </mxGeometry>
        </mxCell>
        <mxCell id="IUiZCe1x3tNY3_lS6yql-69" value="IEmailSender" style="edgeLabel;html=1;align=center;verticalAlign=middle;resizable=0;points=[];labelBackgroundColor=none;" vertex="1" connectable="0" parent="IUiZCe1x3tNY3_lS6yql-68">
          <mxGeometry x="0.6209" y="1" relative="1" as="geometry">
            <mxPoint x="39" y="16" as="offset" />
          </mxGeometry>
        </mxCell>
        <mxCell id="IUiZCe1x3tNY3_lS6yql-70" value="" style="rounded=0;orthogonalLoop=1;jettySize=auto;html=1;endArrow=none;endFill=0;endSize=6;strokeWidth=1;sketch=0;exitX=1;exitY=0.5;exitDx=0;exitDy=0;" edge="1" parent="1" source="IUiZCe1x3tNY3_lS6yql-30" target="IUiZCe1x3tNY3_lS6yql-67">
          <mxGeometry relative="1" as="geometry">
            <mxPoint x="649" y="395" as="sourcePoint" />
            <mxPoint x="619" y="395" as="targetPoint" />
          </mxGeometry>
        </mxCell>
      </root>
    </mxGraphModel>
  </diagram>
</mxfile>
